<?xml version="1.0" encoding="UTF-8" standalone="no"?>
<!DOCTYPE svg PUBLIC "-//W3C//DTD SVG 1.1//EN" "http://www.w3.org/Graphics/SVG/1.1/DTD/svg11.dtd">
<svg width="100%" height="100%" viewBox="0 0 1080 1080" version="1.1" xmlns="http://www.w3.org/2000/svg" xmlns:xlink="http://www.w3.org/1999/xlink" xml:space="preserve" xmlns:serif="http://www.serif.com/" style="fill-rule:evenodd;clip-rule:evenodd;stroke-linecap:round;stroke-linejoin:round;stroke-miterlimit:1.5;">
    <g transform="matrix(1,0,0,1,9.18087,-12.3438)">
        <g id="rustacean-flat-happy.svg" transform="matrix(0.684353,0,0,0.684353,544.156,559.425)">
            <g transform="matrix(1,0,0,1,-600,-400)">
                <g id="Layer-1" serif:id="Layer 1">
                    <g transform="matrix(1,0,0,1,1009.4,506.362)">
                        <path d="M0,-7.203L-12.072,-32.209C-12.009,-33.156 -11.961,-34.107 -11.961,-35.062C-11.961,-63.408 -41.439,-89.533 -91.03,-110.451L-91.03,-93.058C-95.866,-94.977 -100.901,-96.845 -106.147,-98.651L-106.147,-106.759C-177.021,-132.319 -282.53,-148.537 -400.388,-148.537C-503.361,-148.537 -596.917,-136.157 -666.179,-115.983L-666.179,-87.737L-666.181,-87.737L-666.181,-121.925C-737.141,-99.375 -781.135,-68.048 -781.135,-33.41C-781.135,-27.95 -780.034,-22.572 -777.918,-17.297L-785.146,-4.43C-785.146,-4.43 -790.938,3.082 -780.74,18.932C-771.746,32.909 -726.692,87.617 -702.913,116.267C-692.699,130.954 -685.772,140.001 -685.167,139.126C-684.212,137.74 -691.518,110.165 -711.802,78.703C-721.268,61.808 -732.57,39.42 -739.356,22.884C-720.414,34.874 -609.126,90.913 -382.124,90.685C-150.13,90.453 -47.009,17.834 -35.691,7.948C-39.646,23.837 -53.159,55.981 -63.936,78.586C-81.642,110.917 -88.056,139.064 -87.232,140.456C-86.708,141.334 -80.667,132.015 -71.756,116.913C-51.025,87.37 -11.739,30.974 -3.889,16.608C5.007,0.323 0,-7.203 0,-7.203" style="fill:rgb(165,43,0);fill-rule:nonzero;"/>
                    </g>
                    <g transform="matrix(1,0,0,1,1079.49,294.885)">
                        <path d="M0,204.135L-79.343,145.689C-80.088,143.089 -80.833,140.488 -81.603,137.908L-55.541,100.154C-52.881,96.314 -52.345,91.322 -54.072,86.943C-55.803,82.585 -59.587,79.461 -64.062,78.696L-108.128,71.217C-109.837,67.732 -111.626,64.301 -113.422,60.898L-94.907,18.51C-93.004,14.193 -93.402,9.175 -95.929,5.256C-98.446,1.319 -102.715,-0.981 -107.267,-0.802L-151.991,0.823C-154.306,-2.193 -156.658,-5.18 -159.058,-8.114L-148.78,-53.546C-147.738,-58.158 -149.054,-62.989 -152.267,-66.34C-155.462,-69.679 -160.105,-71.062 -164.52,-69.979L-208.082,-59.27C-210.902,-61.763 -213.77,-64.223 -216.67,-66.635L-215.103,-113.276C-214.935,-117.997 -217.136,-122.484 -220.915,-125.105C-224.692,-127.741 -229.485,-128.137 -233.616,-126.179L-274.254,-106.858C-277.527,-108.736 -280.819,-110.595 -284.146,-112.395L-291.327,-158.356C-292.056,-163.012 -295.051,-166.968 -299.246,-168.774C-303.431,-170.591 -308.222,-170.002 -311.894,-167.238L-348.126,-140.053C-351.695,-141.238 -355.279,-142.373 -358.905,-143.46L-374.522,-187.045C-376.11,-191.488 -379.772,-194.751 -384.238,-195.669C-388.688,-196.578 -393.266,-195.037 -396.352,-191.589L-426.851,-157.47C-430.536,-157.893 -434.228,-158.28 -437.927,-158.601L-461.476,-198.277C-463.86,-202.295 -468.073,-204.741 -472.615,-204.741C-477.144,-204.741 -481.365,-202.295 -483.733,-198.277L-507.288,-158.601C-510.989,-158.28 -514.696,-157.893 -518.376,-157.47L-548.875,-191.589C-551.965,-195.037 -556.559,-196.578 -560.997,-195.669C-565.457,-194.739 -569.125,-191.488 -570.704,-187.045L-586.333,-143.46C-589.954,-142.373 -593.538,-141.23 -597.113,-140.053L-633.333,-167.238C-637.016,-170.012 -641.811,-170.599 -646.001,-168.774C-650.182,-166.968 -653.189,-163.012 -653.914,-158.356L-661.1,-112.395C-664.422,-110.595 -667.714,-108.746 -670.995,-106.858L-711.629,-126.179C-715.756,-128.145 -720.574,-127.741 -724.333,-125.105C-728.106,-122.484 -730.313,-117.997 -730.143,-113.276L-728.581,-66.635C-731.475,-64.223 -734.337,-61.763 -737.172,-59.27L-780.726,-69.979C-785.149,-71.053 -789.788,-69.679 -792.991,-66.34C-796.212,-62.989 -797.517,-58.158 -796.482,-53.546L-786.225,-8.114C-788.603,-5.169 -790.958,-2.193 -793.267,0.823L-837.991,-0.802C-842.504,-0.937 -846.812,1.319 -849.334,5.256C-851.861,9.175 -852.244,14.193 -850.363,18.51L-831.835,60.898C-833.634,64.301 -835.421,67.732 -837.144,71.217L-881.207,78.696C-885.686,79.45 -889.459,82.572 -891.201,86.943C-892.929,91.322 -892.368,96.314 -889.727,100.154L-863.661,137.908C-863.862,138.575 -864.048,139.247 -864.248,139.916L-937.944,218.201C-937.944,218.201 -949.24,227.052 -932.797,247.855C-918.297,266.206 -843.846,338.951 -804.526,377.06C-787.92,396.408 -776.542,408.389 -775.354,407.353C-773.478,405.708 -783.326,370.506 -816.036,329.204C-841.252,292.148 -873.977,235.155 -866.303,228.586C-866.303,228.586 -857.574,217.505 -840.061,209.529C-839.42,210.041 -840.723,209.022 -840.061,209.529C-840.061,209.529 -470.466,380.02 -127.632,212.413C-88.468,205.388 -64.759,226.368 -64.759,226.368C-56.583,231.108 -77.755,289.712 -95.166,328.505C-118.845,372.555 -122.317,406.927 -120.31,408.119C-119.042,408.876 -110.427,395.766 -98.138,374.902C-67.814,332.649 -10.492,252.1 0,232.534C11.895,210.352 0,204.135 0,204.135" style="fill:rgb(247,76,0);fill-rule:nonzero;"/>
                    </g>
                    <g transform="matrix(1,0,0,1,917.896,244.679)">
                        <path d="M0,232.466C0,232.466 53.179,230 123.032,159.004L132.93,137.025C132.93,137.025 24.513,29.177 193.048,-45.266C193.048,-45.266 178.293,-21.154 182.622,72.006C182.622,72.006 233.437,54.357 248.336,-27.934C248.336,-27.934 322.456,69.79 167.834,161.443C167.834,161.443 95.294,277.732 -6.971,266.593L0,232.466Z" style="fill:rgb(247,76,0);fill-rule:nonzero;"/>
                    </g>
                    <g transform="matrix(1,0,0,1,676.997,488.361)">
                        <path d="M0,-78.192C0,-78.192 36.935,-118.635 73.871,-78.192C73.871,-78.192 102.893,-24.265 73.871,2.695C73.871,2.695 26.384,40.443 0,2.695C0,2.695 -31.658,-26.964 0,-78.192" style="fill-rule:nonzero;"/>
                    </g>
                    <g transform="matrix(1,0,0,1,719.761,425.169)">
                        <path d="M0,0.004C0,15.75 -9.282,28.518 -20.732,28.518C-32.18,28.518 -41.462,15.75 -41.462,0.004C-41.462,-15.746 -32.18,-28.514 -20.732,-28.514C-9.282,-28.514 0,-15.746 0,0.004" style="fill:white;fill-rule:nonzero;"/>
                    </g>
                    <g transform="matrix(1,0,0,1,512.148,482.736)">
                        <path d="M0,-83.609C0,-83.609 63.355,-111.661 80.648,-49.047C80.648,-49.047 98.762,23.933 28.618,28.052C28.618,28.052 -60.826,10.824 0,-83.609" style="fill-rule:nonzero;"/>
                    </g>
                    <g transform="matrix(1,0,0,1,543.968,426.204)">
                        <path d="M0,0.002C0,16.241 -9.572,29.411 -21.381,29.411C-33.185,29.411 -42.76,16.241 -42.76,0.002C-42.76,-16.242 -33.185,-29.409 -21.381,-29.409C-9.572,-29.409 0,-16.242 0,0.002" style="fill:white;fill-rule:nonzero;"/>
                    </g>
                    <g transform="matrix(1,0,0,1,593.317,576.574)">
                        <path d="M0,-40.271L80.796,-46.755C80.796,-46.755 78.058,-33.749 67.517,-23.986C67.517,-23.986 39.727,6.484 7.844,-26.519C7.844,-26.519 2.627,-32.148 0,-40.271" style="fill-rule:nonzero;"/>
                    </g>
                    <g transform="matrix(1,0,0,1,269.796,270.778)">
                        <path d="M0,190.741C-0.667,190.741 -1.321,190.79 -1.973,190.842C-28.207,184.871 -101.946,165.657 -121.437,134.479C-121.437,134.479 -22.21,21.607 -177.297,-50.54L-159.24,74.338C-159.24,74.338 -207.049,42.389 -217.366,-27.008C-217.366,-27.008 -333.789,57.486 -165.982,138.466C-165.982,138.466 -150.762,195.653 -4.633,241.281L-4.526,240.846C-3.055,241.118 -1.549,241.281 0,241.281C13.808,241.281 25.003,229.969 25.003,216.01C25.003,202.054 13.808,190.741 0,190.741" style="fill:rgb(247,76,0);fill-rule:nonzero;"/>
                    </g>
                </g>
            </g>
        </g>
        <g transform="matrix(0.981272,-1.08477,1.08477,0.981272,465.928,272.722)">
            <g transform="matrix(1,0,0,1,109.242,209.994)">
                <path d="M0,217.842C-5.099,222.481 -13.241,221.345 -16.678,215.278C-18.97,211.239 -18.134,207.014 -15.674,203.802C-14.03,198.543 -5.278,197.115 -1.193,200.036C4.611,204.196 5.296,213.025 0,217.842M-20.181,120.111C-20.162,119.397 -19.167,119.425 -19.092,120.111C-16.697,144.931 -16.538,170.051 -14.706,194.938C-14.622,196.12 -16.453,196.112 -16.547,194.938C-18.416,170.201 -20.96,144.931 -20.181,120.111M-17.627,84.604C-12.997,80.471 -8.18,83.664 -6.076,88.52C-2.311,97.253 -2.742,107.602 -2.282,116.917C-1.775,127.332 -0.808,137.85 -0.827,148.283C-0.827,149.128 -2.028,149.091 -2.113,148.283C-3.541,134.666 -3.634,120.815 -4.414,107.151C-4.63,103.254 -4.893,99.347 -5.672,95.525C-5.944,94.145 -6.302,92.774 -6.733,91.44C-7.09,90.247 -7.541,89.083 -8.086,87.956C-8.752,85.768 -10.255,84.923 -12.584,85.42C-15.138,84.275 -16.998,85.045 -18.171,87.731C-18.528,88.613 -18.875,89.505 -19.233,90.388C-19.833,92.379 -20.012,94.511 -20.144,96.576C-20.341,99.929 -20.087,103.273 -19.918,106.615C-19.909,106.813 -20.19,106.831 -20.247,106.662C-22.209,100.455 -23.092,89.477 -17.627,84.604M-25.018,71.784C-26.163,70.189 -25.872,68.151 -25.919,66.273C-25.937,65.502 -24.745,65.512 -24.726,66.273C-24.698,67.484 -24.83,68.873 -24.52,70.047C-24.219,71.146 -23.092,72.799 -21.721,72.301C-19.853,71.625 -20.979,67.465 -20.454,65.887C-20.407,65.756 -20.19,65.699 -20.116,65.85C-19.364,67.343 -19.298,69.813 -19.636,71.438C-19.871,72.592 -20.792,73.475 -21.984,73.588C-23.299,73.719 -24.294,72.789 -25.018,71.784M-22.266,58.994C-19.693,58.929 -19.205,63.201 -19.711,64.977C-19.824,65.38 -20.463,65.417 -20.566,64.977C-20.839,63.793 -20.444,60.187 -22.275,60.262C-24.022,60.337 -25.008,62.939 -25.158,64.394C-25.206,64.807 -25.769,64.807 -25.807,64.394C-26.004,62.357 -24.717,59.06 -22.266,58.994M-17.364,63.07C-17.317,62.375 -16.265,62.357 -16.274,63.07C-16.284,65.099 -16.453,67.155 -15.946,69.155C-15.824,69.644 -15.674,70.311 -15.326,70.714C-14.838,71.269 -13.138,71.033 -12.659,70.488C-11.88,69.634 -11.926,68.301 -11.813,67.193C-11.805,67.146 -11.805,67.099 -11.795,67.052C-11.758,66.723 -11.25,66.592 -11.166,66.967C-11.128,67.127 -11.1,67.305 -11.082,67.493C-10.809,69.831 -11.983,73.409 -14.979,72.386C-18.068,71.343 -17.552,65.492 -17.364,63.07M-12.979,58.196C-11.269,58.769 -10.668,60.854 -10.584,62.835C-10.527,63.934 -10.631,64.995 -10.781,65.765C-10.884,66.32 -11.645,66.122 -11.692,65.643C-11.758,64.986 -11.738,64.291 -11.738,63.596C-11.738,62.45 -11.776,61.285 -12.274,60.272C-13.054,58.675 -14.744,59.06 -15.729,60.196C-16.171,60.722 -16.387,61.323 -16.678,61.934C-16.763,62.121 -17.101,62.084 -17.138,61.877C-17.458,59.765 -15.119,57.464 -12.979,58.196M-4.695,58.365C-4.63,58.374 -4.564,58.403 -4.498,58.421C-2.057,59.295 -1.869,63.484 -2.367,65.53C-2.47,65.972 -3.25,66.029 -3.315,65.53C-3.521,63.999 -3.259,62.459 -3.832,60.976C-3.973,60.6 -4.17,60.083 -4.498,59.821C-5.231,59.248 -6.142,59.745 -6.667,60.234C-7.241,60.769 -7.409,61.446 -7.606,62.168C-7.654,62.357 -7.907,62.384 -8.011,62.225C-8.208,61.905 -8.302,61.568 -8.292,61.23C-8.264,59.633 -6.245,57.999 -4.695,58.365M-8.527,63.248C-8.415,62.666 -7.55,62.835 -7.541,63.38C-7.494,65.362 -7.917,67.522 -7.353,69.456C-7.353,69.465 -7.353,69.465 -7.344,69.475C-7.109,70.254 -6.452,70.977 -5.587,71.155C-5.391,71.194 -5.203,71.184 -5.034,71.137C-4.263,70.911 -3.738,69.906 -3.559,69.259C-3.296,68.366 -3.418,67.427 -3.24,66.517C-3.174,66.225 -2.789,66.281 -2.705,66.517C-2.076,68.226 -2.592,70.911 -4.095,71.916C-4.751,72.367 -5.597,72.489 -6.63,72.048C-7.907,71.503 -8.518,70.169 -8.752,68.639C-9.043,66.741 -8.78,64.563 -8.527,63.248M1.014,172.718C1.258,180.053 1.766,187.631 0.789,194.928C0.667,195.839 -0.751,195.905 -0.695,194.928C0.169,180.316 -2.028,165.76 -1.766,151.175C-1.756,150.518 -0.723,150.34 -0.582,151.016C0.798,158.059 0.76,165.563 1.014,172.718M8.968,171.882C7.982,160.698 6.987,149.504 5.992,138.32C4.188,117.942 2.414,97.581 0.62,77.212C0.441,75.109 0.253,72.996 0.066,70.893C-0.179,68.977 -0.517,66.93 0.62,65.323C1.296,64.365 2.319,62.488 3.512,61.596C3.531,61.407 3.597,61.22 3.737,61.051C13.504,49.012 24.285,35.385 23.355,18.942C23.12,14.772 22.106,10.64 20.416,6.809C19.881,6.912 19.336,6.978 18.8,7.1C17.984,7.288 17.194,7.579 16.368,7.748C16.162,7.795 16.068,7.532 16.228,7.41C17.232,6.677 18.688,6.123 20.031,5.973C19.589,5.034 19.101,4.114 18.575,3.212C17.73,3.419 16.829,3.466 15.974,3.616C15.194,3.747 14.312,4.114 13.532,3.851C13.382,3.804 13.335,3.626 13.438,3.513C14.049,2.827 15.223,2.724 16.087,2.564C16.725,2.433 17.364,2.32 18.012,2.282C17.016,0.696 15.89,-0.807 14.65,-2.206C13.373,-1.605 11.964,-1.201 10.687,-0.619C10.367,-0.478 10.133,-0.882 10.415,-1.079C11.448,-1.821 12.64,-2.601 13.898,-3.014C13.307,-3.634 12.696,-4.216 12.077,-4.77C11.485,-4.432 10.855,-4.132 10.274,-3.793C9.532,-3.362 8.799,-2.92 8.048,-2.507C7.926,-2.441 7.804,-2.375 7.682,-2.31C7.437,-2.178 7.174,-2.497 7.381,-2.704C7.494,-2.817 7.616,-2.92 7.729,-3.023C8.752,-3.953 9.973,-4.855 11.232,-5.502C7.344,-8.723 2.93,-10.818 -1.831,-12.687C-2.207,-12.837 -2.583,-12.987 -2.967,-13.128C0.864,0.329 2.131,15.016 3.606,28.878C3.69,29.695 2.892,29.967 2.292,29.723C-15.664,33.826 -34.605,32.446 -52.758,35.639C-52.016,37.329 -51.274,38.982 -50.504,40.616C-49.528,40.034 -48.41,39.715 -47.312,39.414C-45.461,38.898 -43.574,38.4 -41.658,38.175C-41.489,38.156 -41.433,38.419 -41.574,38.485C-44.278,39.809 -47.227,40.532 -50.006,41.668C-49.838,42.016 -49.668,42.354 -49.5,42.701C-48.842,42.325 -48.025,42.147 -47.321,41.931C-46.072,41.546 -44.794,41.359 -43.545,41.001C-43.151,40.879 -42.992,41.489 -43.377,41.612C-44.522,41.996 -45.64,42.579 -46.757,43.039C-47.434,43.321 -48.166,43.725 -48.908,43.912C-48.626,44.476 -48.335,45.021 -48.054,45.574C-46.344,44.636 -44.166,44.223 -42.409,43.546C-42.146,43.443 -41.968,43.884 -42.222,43.997C-43.921,44.758 -45.677,46.007 -47.499,46.617C-47.161,47.256 -46.823,47.885 -46.466,48.514C-45.847,48.176 -45.124,47.969 -44.485,47.706C-43.499,47.303 -42.494,46.927 -41.564,46.392C-41.264,46.223 -40.992,46.683 -41.292,46.862C-42.193,47.378 -43.039,47.988 -43.94,48.505C-44.541,48.843 -45.208,49.265 -45.894,49.509C-45.349,50.458 -44.786,51.397 -44.212,52.318C-43.283,51.66 -42.222,51.162 -41.273,50.552C-39.939,49.706 -38.625,48.815 -37.329,47.904C-37.113,47.753 -36.869,48.082 -37.057,48.261C-38.184,49.312 -39.338,50.289 -40.587,51.199C-41.536,51.885 -42.541,52.712 -43.63,53.247C-43.377,53.632 -43.114,54.027 -42.86,54.411C-41.743,53.754 -40.503,53.266 -39.376,52.655C-39.047,52.477 -38.775,52.956 -39.085,53.144C-40.165,53.801 -41.188,54.627 -42.288,55.266C-41.921,55.801 -41.545,56.336 -41.16,56.863C-40.7,56.581 -40.184,56.356 -39.714,56.13C-38.794,55.689 -37.911,55.2 -37.028,54.694C-36.737,54.525 -36.493,54.956 -36.766,55.125C-37.639,55.67 -38.493,56.205 -39.32,56.806C-39.714,57.097 -40.118,57.416 -40.56,57.68C-39.996,58.421 -39.433,59.154 -38.841,59.886C-37.536,59.06 -36.099,58.431 -34.766,57.642C-34.437,57.445 -34.136,57.961 -34.465,58.158C-35.742,58.938 -36.944,59.867 -38.24,60.619C-37.695,61.277 -37.131,61.924 -36.559,62.563C-36.362,62.319 -36.042,62.121 -35.808,61.952C-35.338,61.614 -34.821,61.342 -34.305,61.07C-33.995,60.901 -33.742,61.352 -34.033,61.539C-34.502,61.84 -34.916,62.206 -35.319,62.591C-35.517,62.788 -35.723,63.061 -35.967,63.23C-35.207,64.047 -34.427,64.855 -33.62,65.643C-33.272,65.455 -32.915,65.277 -32.577,65.079C-32.268,64.892 -31.995,65.37 -32.295,65.549C-32.586,65.728 -32.868,65.915 -33.15,66.094C-32.276,66.948 -31.366,67.784 -30.417,68.611C-29.995,68.46 -29.421,68.686 -29.394,69.286C-28.323,94.83 -28.783,120.495 -28.624,146.058C-28.548,157.279 -28.52,168.502 -28.36,179.724C-28.21,190.195 -28.379,200.919 -27.074,211.324C-26.426,216.48 -25.102,222.03 -21.298,225.815C-17.373,229.712 -11.269,230.97 -5.897,230.632C7.841,229.759 12.086,216.752 11.739,204.939C11.41,193.923 9.945,182.861 8.968,171.882" style="fill:rgb(179,179,179);fill-rule:nonzero;"/>
            </g>
            <g transform="matrix(1,0,0,1,112.98,221.385)">
                <path d="M0,49.66C-0.141,49.829 -0.207,50.016 -0.225,50.205C-1.418,51.097 -2.441,52.974 -3.118,53.932C-4.254,55.539 -3.916,57.586 -3.671,59.502C-3.484,61.605 -3.296,63.718 -3.118,65.821C-4.451,63.868 -6.048,62.084 -7.832,60.525C-8.132,60.253 -8.452,59.999 -8.771,59.746C-9.513,59.144 -10.283,58.591 -11.081,58.084C-11.541,57.793 -12.011,57.511 -12.49,57.248C-13.25,56.816 -14.021,56.44 -14.819,56.102C-15.063,55.989 -15.307,55.887 -15.551,55.802C-16.762,55.313 -18.021,54.929 -19.298,54.646C-18.021,53.839 -16.734,53.031 -15.476,52.205C-15.091,51.951 -14.706,51.698 -14.321,51.444C-13.551,50.919 -12.781,50.392 -12.029,49.839C-10.79,48.936 -9.579,47.988 -8.433,46.974C-7.794,46.42 -7.165,45.838 -6.564,45.227C-4.066,42.721 -1.962,39.856 -0.065,36.879C6.227,27.028 10.453,15.505 9.805,3.832C9.588,-0.196 8.724,-4.197 7.26,-7.953C6.461,-10.029 5.475,-12.02 4.311,-13.898C5.062,-14.311 5.794,-14.753 6.537,-15.184C7.118,-15.523 7.748,-15.823 8.339,-16.161C8.959,-15.607 9.57,-15.025 10.161,-14.405C8.903,-13.992 7.71,-13.212 6.677,-12.47C6.396,-12.273 6.63,-11.869 6.95,-12.01C8.227,-12.592 9.635,-12.996 10.913,-13.597C12.152,-12.198 13.279,-10.695 14.274,-9.109C13.626,-9.071 12.988,-8.958 12.35,-8.827C11.485,-8.667 10.312,-8.564 9.701,-7.878C9.598,-7.765 9.645,-7.587 9.795,-7.54C10.574,-7.277 11.457,-7.644 12.237,-7.775C13.091,-7.925 13.993,-7.972 14.838,-8.179C15.364,-7.277 15.852,-6.357 16.293,-5.418C14.951,-5.268 13.495,-4.714 12.49,-3.981C12.331,-3.859 12.425,-3.596 12.631,-3.643C13.457,-3.812 14.247,-4.103 15.063,-4.291C15.599,-4.413 16.144,-4.479 16.679,-4.582C18.369,-0.751 19.383,3.381 19.618,7.551C20.548,23.994 9.767,37.621 0,49.66" style="fill:rgb(153,153,153);fill-rule:nonzero;"/>
            </g>
            <g transform="matrix(1,0,0,1,102.553,429.093)">
                <path d="M0,-19.05C0.81,-18.811 1.593,-18.409 2.286,-17.889C4.529,-16.204 5.662,-13.523 5.855,-10.776C6.163,-6.403 3.797,-1.577 -0.253,0.076C1.84,-0.003 3.928,-0.783 5.613,-2.33C9.649,-6.037 9.81,-12.444 6.111,-16.485C4.364,-18.394 2.193,-19.126 0,-19.05" style="fill:rgb(153,153,153);fill-rule:nonzero;"/>
            </g>
            <g transform="matrix(1,0,0,1,110.84,198.497)">
                <path d="M0,40.024C-1.478,26.123 -4.489,12.431 -6.076,-1.421C-6.513,-0.765 -7.038,-0.138 -7.526,0.429C-7.599,0.513 -7.68,0.572 -7.764,0.612C-6.021,6.03 -5.91,12.241 -5.28,17.853C-4.585,24.05 -3.958,30.252 -3.305,36.454C-3.247,37.014 -3.747,37.222 -4.175,37.102C-4.192,37.109 -4.204,37.122 -4.222,37.128C-9.49,38.794 -15.428,39.186 -20.925,39.298C-20.818,40.017 -20.713,40.732 -20.61,41.445C-13.708,40.997 -6.812,40.61 0,40.024" style="fill:rgb(153,153,153);fill-rule:nonzero;"/>
            </g>
            <g transform="matrix(1,0,0,1,83.0524,213.168)">
                <path d="M0,19.581C-0.522,16.585 -1.354,13.398 -0.989,10.356C-0.974,10.225 -0.791,10.14 -0.716,10.282C1.841,15.119 2.129,21.663 3.443,27.024C4.143,26.976 4.842,26.928 5.542,26.881C3.393,14.373 -0.213,2.283 -2.699,-10.125C-3.613,-9.844 -4.469,-9.418 -5.269,-8.873C-3.354,-3.937 -1.882,2.275 -1.601,7.526C-1.562,8.249 -2.564,8.283 -2.783,7.686C-4.527,2.926 -5.753,-2.908 -6.32,-8.068C-11.155,-3.921 -13.822,4.547 -15.624,9.728C-17.894,16.256 -19.513,22.992 -21.126,29.706C-13.576,28.431 -5.893,27.699 1.812,27.141C0.709,24.798 0.443,22.121 0,19.581" style="fill:rgb(179,179,179);fill-rule:nonzero;"/>
            </g>
            <g transform="matrix(1,0,0,1,88.6246,391.714)">
                <path d="M0,-85.708C0.006,-88.075 0.019,-90.485 0.734,-92.741C1.45,-94.997 2.991,-97.117 5.213,-97.931C8.584,-99.164 12.435,-96.959 14.264,-93.871C16.093,-90.783 16.392,-87.056 16.628,-83.474C17.752,-66.419 18.467,-49.34 19.181,-32.262C19.785,-17.825 20.389,-3.388 20.993,11.05C21.012,11.513 21.017,12.021 20.726,12.381C20.401,12.781 19.829,12.855 19.315,12.896C15.609,13.191 11.787,13.456 8.069,13.241C4.123,13.013 4.834,10.078 4.314,6.536C3.218,-0.933 2.395,-8.44 1.777,-15.964C0.549,-30.942 0.142,-45.975 0.021,-60.999C-0.044,-69.235 -0.023,-77.472 0,-85.708" style="fill:rgb(153,153,153);fill-rule:nonzero;"/>
            </g>
            <g transform="matrix(1,0,0,1,107.411,206.971)">
                <path d="M0,-9.664C4.761,-7.795 9.175,-5.701 13.063,-2.479C11.804,-1.832 10.583,-0.93 9.56,0C7.1,-3.851 3.888,-7.185 0,-9.664" style="fill:rgb(153,153,153);fill-rule:nonzero;"/>
            </g>
            <g transform="matrix(1,0,0,1,81.1354,243.06)">
                <path d="M0,-40.39C-0.235,-40.164 -0.479,-39.939 -0.723,-39.733C-1.597,-38.953 -2.442,-38.286 -2.686,-38.042C-2.78,-37.948 -2.874,-37.845 -2.968,-37.742C-3.428,-37.216 -3.822,-36.634 -4.161,-36.014C-4.968,-34.511 -5.437,-32.802 -5.823,-31.13C-7.992,-21.552 -8.123,-11.532 -6.198,-1.906C-6.151,-1.634 -6.095,-1.352 -6.039,-1.079C-12.237,-0.948 -18.425,-0.206 -24.492,1.118C-24.473,1.015 -24.454,0.902 -24.435,0.798C-23.365,0.564 -22.285,0.367 -21.205,0.17C-21.195,0.132 -21.205,0.104 -21.205,0.066C-19.045,-8.827 -16.829,-17.758 -13.204,-26.191C-11.147,-30.99 -7.513,-41.132 -0.968,-40.972C-0.949,-41.291 -0.488,-41.508 -0.329,-41.16C-0.216,-40.907 -0.103,-40.643 0,-40.39" style="fill:rgb(153,153,153);fill-rule:nonzero;"/>
            </g>
            <g transform="matrix(1,0,0,1,88.1486,252.253)">
                <path d="M0,9.669C-0.358,7.595 -1.692,6.822 -3.212,5.579C-4.614,4.432 -5.908,3.148 -7.076,1.763C-8.956,-0.466 -10.822,-4.494 -13.852,-5.192C-14.946,-5.445 -16.072,-5.021 -16.661,-4.049C-18.815,-0.494 -15.462,4.584 -13.284,7.382C-10.72,10.675 -7.17,15.114 -2.613,14.273C-0.492,13.88 0.319,11.517 0,9.669" style="fill:rgb(204,204,204);fill-rule:nonzero;"/>
            </g>
            <g transform="matrix(-0.699552,-0.714582,-0.714582,0.699552,89.0811,264.471)">
                <path d="M-3.261,-5.603C-1.452,-5.694 0.01,-4.122 0.433,-2.5C0.998,-0.333 -1.108,1.728 -3.261,1.117C-4.872,0.659 -6.414,-0.836 -6.285,-2.643C-6.166,-4.329 -4.96,-5.519 -3.261,-5.603" style="fill:rgb(204,204,204);fill-rule:nonzero;"/>
            </g>
            <g transform="matrix(1,0,0,1,96.1915,414.102)">
                <path d="M0,18.921C-1.857,16.41 -4.622,14.941 -6.024,12.012C-8.008,7.866 -7.045,3.437 -7.329,-0.931C-7.404,-2.093 -9.178,-2.864 -9.756,-1.588C-11.891,3.128 -12.454,9.034 -10.525,13.909C-9.061,17.61 -5.843,21.58 -1.615,21.736C-0.295,21.785 0.849,20.069 0,18.921" style="fill:rgb(204,204,204);fill-rule:nonzero;"/>
            </g>
            <g transform="matrix(1,0,0,1,105.612,437.526)">
                <path d="M0,-3.943C-0.879,-4.182 -1.484,-4.085 -2.332,-3.813C-2.923,-3.623 -3.544,-3.533 -4.163,-3.518C-5.384,-3.489 -5.929,-1.785 -4.802,-1.16C-3.033,-0.179 -0.29,0.239 0.866,-1.814C1.323,-2.626 0.915,-3.694 0,-3.943" style="fill:rgb(204,204,204);fill-rule:nonzero;"/>
            </g>
            <g transform="matrix(1,0,0,1,89.0329,280.794)">
                <path d="M0,-9.979C-0.698,-11.307 -2.875,-11.671 -3.882,-10.479C-3.92,-10.434 -3.958,-10.389 -3.996,-10.344C-4.439,-9.819 -4.66,-9.216 -4.621,-8.598C-4.926,-5.698 -6.009,-1.533 -3.696,0.748C-2.738,1.692 -0.82,1.619 -0.182,0.294C0.626,-1.38 0.272,-3.136 0.394,-4.941C0.512,-6.688 0.846,-8.367 0,-9.979" style="fill:rgb(153,153,153);fill-rule:nonzero;"/>
            </g>
            <g transform="matrix(1,0,0,1,97.4889,273.68)">
                <path d="M0,1.657C0.012,0.016 0.15,-1.573 -0.177,-3.195C-0.744,-6.009 -4.545,-5.011 -4.814,-2.567C-4.989,-0.985 -5.015,0.666 -5.021,2.259C-5.026,3.922 -5.041,5.562 -3.772,6.775C-2.855,7.653 -0.935,7.666 -0.345,6.334C0.352,4.762 -0.014,3.333 0,1.657" style="fill:rgb(153,153,153);fill-rule:nonzero;"/>
            </g>
            <g transform="matrix(1,0,0,1,106.083,275.663)">
                <path d="M0,-0.247C-0.037,-1.94 0.084,-3.768 -0.935,-5.204C-1.705,-6.29 -3.486,-6.558 -4.197,-5.204C-5.002,-3.674 -4.954,-1.94 -5.091,-0.247C-5.233,1.517 -5.379,3.301 -4.293,4.805C-3.448,5.975 -1.485,6.311 -0.713,4.805C0.117,3.186 0.039,1.532 0,-0.247" style="fill:rgb(153,153,153);fill-rule:nonzero;"/>
            </g>
            <g transform="matrix(1,0,0,1,89.3234,332.979)">
                <path d="M0,-16.368C-0.172,-19.709 -0.425,-23.058 -0.22,-26.405C-0.093,-28.474 0.083,-30.605 0.686,-32.595C1.04,-33.481 1.394,-34.368 1.749,-35.255C2.918,-37.943 4.78,-38.712 7.337,-37.56C9.667,-38.061 11.165,-37.216 11.829,-35.024C12.375,-33.899 12.827,-32.741 13.186,-31.547C13.622,-30.208 13.971,-28.841 14.251,-27.461C15.028,-23.633 15.285,-19.727 15.507,-15.836C16.289,-2.169 16.374,11.686 17.803,25.298C17.888,26.107 19.093,26.148 19.095,25.298C19.115,14.868 18.142,4.349 17.632,-6.07C17.177,-15.38 17.611,-25.727 13.84,-34.462C11.743,-39.321 6.92,-42.516 2.289,-38.386C-3.176,-33.512 -2.295,-22.53 -0.331,-16.323C-0.276,-16.148 0.011,-16.17 0,-16.368" style="fill:rgb(77,102,102);fill-rule:nonzero;"/>
            </g>
            <g transform="matrix(0.997335,-0.0729537,-0.0729537,-0.997335,97.2382,404.612)">
                <path d="M-2.721,-0.126C-2.731,24.83 -1.054,49.896 -1.638,74.829C-1.654,75.517 -2.647,75.616 -2.721,74.908C-5.306,50.209 -4.611,24.816 -4.55,0.008C-4.547,-1.164 -2.72,-1.309 -2.721,-0.126" style="fill:rgb(77,102,102);fill-rule:nonzero;"/>
            </g>
            <g transform="matrix(1,0,0,1,108.167,412.818)">
                <path d="M0,13.945C-1.685,15.492 -3.773,16.272 -5.867,16.351C-1.816,14.698 0.55,9.873 0.242,5.5C0.049,2.753 -1.084,0.071 -3.328,-1.614C-4.021,-2.134 -4.804,-2.535 -5.613,-2.775C-3.42,-2.851 -1.249,-2.118 0.498,-0.209C4.196,3.832 4.036,10.238 0,13.945M-9.031,15.932C-10.844,15.353 -12.497,14.207 -13.695,12.525C-17.631,7 -14.045,0.997 -8.963,-1.909C-6.417,-2.638 -3.509,-0.859 -2.203,1.289C-0.926,3.39 -0.664,6.017 -1.068,8.409C-1.803,12.752 -4.99,15.031 -9.031,15.932M-0.117,-2.783C-4.204,-5.707 -12.954,-4.278 -14.602,0.975C-17.057,4.19 -17.897,8.419 -15.606,12.456C-12.164,18.521 -4.024,19.652 1.075,15.019C6.375,10.205 5.685,1.37 -0.117,-2.783" style="fill:rgb(77,102,102);fill-rule:nonzero;"/>
            </g>
            <g transform="matrix(1,0,0,1,107.474,405.055)">
                <path d="M0,-43.884C-0.261,-29.297 1.94,-14.749 1.076,-0.134C1.019,0.841 2.437,0.781 2.559,-0.134C3.531,-7.433 3.03,-15.004 2.778,-22.341C2.534,-29.5 2.57,-36.999 1.182,-44.044C1.047,-44.725 0.012,-44.544 0,-43.884" style="fill:rgb(77,102,102);fill-rule:nonzero;"/>
            </g>
            <g transform="matrix(1,0,0,1,101.637,271.597)">
                <path d="M0,0.569C0.193,-0.158 0.363,-0.836 0.935,-1.367C1.46,-1.853 2.375,-2.354 3.103,-1.78C3.434,-1.519 3.631,-1.002 3.776,-0.628C4.348,0.852 4.084,2.399 4.291,3.931C4.357,4.424 5.132,4.374 5.238,3.931C5.732,1.881 5.551,-2.31 3.103,-3.184C1.223,-3.855 -1.592,-1.246 -0.402,0.622C-0.303,0.778 -0.05,0.757 0,0.569" style="fill:rgb(77,102,102);fill-rule:nonzero;"/>
            </g>
            <g transform="matrix(1,0,0,1,103.345,198.124)">
                <path d="M0,242.502C-5.372,242.84 -11.476,241.582 -15.401,237.685C-19.205,233.9 -20.528,228.35 -21.176,223.194C-22.482,212.789 -22.312,202.064 -22.463,191.594C-22.623,180.372 -22.651,169.149 -22.726,157.928C-22.886,132.365 -22.425,106.7 -23.496,81.156C-23.524,80.556 -24.097,80.33 -24.52,80.481C-25.468,79.654 -26.379,78.818 -27.252,77.964C-26.971,77.785 -26.689,77.598 -26.398,77.419C-26.098,77.24 -26.37,76.762 -26.68,76.949C-27.018,77.147 -27.375,77.325 -27.722,77.513C-28.53,76.725 -29.309,75.917 -30.07,75.1C-29.826,74.931 -29.619,74.658 -29.422,74.461C-29.018,74.076 -28.605,73.71 -28.135,73.409C-27.844,73.222 -28.098,72.771 -28.408,72.94C-28.924,73.212 -29.441,73.484 -29.91,73.822C-30.145,73.991 -30.464,74.189 -30.661,74.433C-31.234,73.794 -31.798,73.147 -32.342,72.489C-31.046,71.737 -29.844,70.808 -28.567,70.028C-28.238,69.831 -28.539,69.315 -28.868,69.512C-30.202,70.301 -31.638,70.93 -32.943,71.756C-33.535,71.023 -34.099,70.291 -34.662,69.55C-34.221,69.286 -33.816,68.967 -33.422,68.676C-32.596,68.075 -31.741,67.54 -30.868,66.995C-30.596,66.826 -30.84,66.395 -31.131,66.564C-32.014,67.07 -32.896,67.559 -33.816,68C-34.286,68.226 -34.803,68.451 -35.263,68.732C-35.648,68.206 -36.023,67.671 -36.39,67.136C-35.291,66.497 -34.268,65.671 -33.188,65.014C-32.877,64.826 -33.15,64.347 -33.479,64.525C-34.606,65.136 -35.845,65.624 -36.962,66.281C-37.216,65.897 -37.479,65.502 -37.733,65.117C-36.644,64.582 -35.639,63.755 -34.69,63.069C-33.441,62.159 -32.286,61.182 -31.159,60.131C-30.971,59.952 -31.216,59.623 -31.431,59.773C-32.728,60.685 -34.042,61.576 -35.375,62.422C-36.324,63.032 -37.385,63.53 -38.315,64.188C-38.888,63.267 -39.451,62.328 -39.996,61.379C-39.311,61.135 -38.644,60.713 -38.042,60.375C-37.141,59.858 -36.296,59.248 -35.395,58.731C-35.094,58.553 -35.366,58.093 -35.667,58.262C-36.596,58.797 -37.602,59.173 -38.587,59.576C-39.226,59.839 -39.949,60.046 -40.569,60.384C-40.926,59.755 -41.264,59.126 -41.602,58.487C-39.78,57.877 -38.024,56.628 -36.324,55.867C-36.071,55.754 -36.249,55.313 -36.512,55.416C-38.268,56.093 -40.447,56.506 -42.156,57.444C-42.438,56.891 -42.729,56.346 -43.01,55.782C-42.269,55.595 -41.536,55.19 -40.86,54.909C-39.742,54.449 -38.625,53.866 -37.479,53.481C-37.094,53.359 -37.254,52.749 -37.648,52.871C-38.897,53.229 -40.174,53.416 -41.423,53.801C-42.127,54.017 -42.945,54.195 -43.603,54.571C-43.771,54.224 -43.94,53.886 -44.109,53.538C-41.329,52.402 -38.381,51.679 -35.676,50.355C-35.535,50.289 -35.592,50.026 -35.761,50.044C-37.677,50.27 -39.564,50.768 -41.414,51.284C-42.513,51.585 -43.63,51.904 -44.607,52.486C-45.377,50.852 -46.119,49.199 -46.861,47.509C-28.708,44.316 -9.767,45.696 8.189,41.593C8.79,41.837 9.588,41.565 9.503,40.748C8.029,26.886 6.762,12.199 2.93,-1.258C8.123,0.724 12.931,2.893 17.129,6.368C15.721,7.09 14.359,8.133 13.279,9.166C13.072,9.373 13.335,9.692 13.579,9.56C14.462,9.1 15.307,8.574 16.171,8.077C16.753,7.738 17.382,7.438 17.974,7.1C18.594,7.654 19.205,8.236 19.796,8.856C18.538,9.269 17.345,10.049 16.312,10.791C16.03,10.988 16.265,11.392 16.584,11.251C17.861,10.669 19.27,10.265 20.547,9.664C21.787,11.063 22.914,12.565 23.909,14.152C23.261,14.19 22.623,14.303 21.984,14.434C21.12,14.594 19.946,14.697 19.335,15.383C19.232,15.496 19.28,15.674 19.43,15.721C20.209,15.984 21.092,15.617 21.872,15.486C22.726,15.336 23.627,15.289 24.473,15.082C24.999,15.984 25.487,16.904 25.928,17.843C24.585,17.993 23.129,18.547 22.125,19.28C21.965,19.402 22.06,19.665 22.266,19.618C23.092,19.449 23.881,19.158 24.698,18.97C25.233,18.848 25.778,18.782 26.313,18.679C28.003,22.51 29.018,26.642 29.252,30.812C30.183,47.255 19.402,60.882 9.635,72.921C9.494,73.09 9.428,73.277 9.41,73.466C8.217,74.357 7.193,76.235 6.517,77.193C5.381,78.8 5.719,80.847 5.963,82.763C7.944,105.235 9.898,127.707 11.889,150.189C12.884,161.374 13.88,172.568 14.866,183.752C15.842,194.731 17.308,205.793 17.636,216.809C17.983,228.622 13.739,241.629 0,242.502M-35.92,24.773C-34.117,19.59 -31.451,11.119 -26.614,6.978C-26.548,7.616 -26.464,8.264 -26.37,8.922C-25.731,13.561 -24.604,18.566 -23.073,22.727C-22.857,23.328 -21.853,23.29 -21.891,22.567C-22.153,17.674 -23.449,11.946 -25.177,7.194C-25.299,6.846 -25.431,6.508 -25.562,6.17C-24.764,5.626 -23.909,5.203 -22.989,4.921C-22.97,5.015 -22.952,5.109 -22.933,5.203C-20.453,17.514 -16.885,29.506 -14.753,41.921C-15.448,41.968 -16.153,42.015 -16.847,42.072C-18.162,36.71 -18.453,30.164 -21.008,25.328C-21.083,25.187 -21.271,25.272 -21.28,25.403C-21.646,28.445 -20.82,31.629 -20.294,34.625C-19.853,37.16 -19.58,39.846 -18.481,42.184C-21.796,42.419 -25.112,42.691 -28.408,43.029C-32.774,43.471 -37.113,44.025 -41.414,44.748C-39.808,38.034 -38.184,31.3 -35.92,24.773M3.277,37.498C3.287,37.498 3.306,37.48 3.315,37.47C3.747,37.592 4.245,37.386 4.188,36.822C3.541,30.624 2.911,24.426 2.216,18.228C1.587,12.612 1.474,6.405 -0.272,0.986C-0.188,0.949 -0.104,0.883 -0.028,0.799C0.46,0.235 0.986,-0.394 1.417,-1.051C3.005,12.8 6.02,26.492 7.494,40.4C0.686,40.982 -6.217,41.367 -13.119,41.818C-13.223,41.105 -13.326,40.391 -13.429,39.668C-7.936,39.555 -1.991,39.17 3.277,37.498M15.373,167.9C12.969,139.869 10.527,111.837 8.085,83.815C8.085,83.748 8.114,83.692 8.104,83.626C8.039,82.565 7.936,81.504 7.841,80.452C7.71,78.997 7.813,78.743 8.667,77.588C9.297,76.733 10.461,75.616 10.875,74.471C10.921,74.424 10.978,74.376 11.025,74.311C21.796,61.051 33.516,45.837 30.915,27.657C28.849,13.204 16.913,-1.587 1.615,-2.949C1.53,-2.958 1.455,-2.949 1.38,-2.92C1.221,-2.93 1.042,-2.883 0.883,-2.761C0.028,-2.094 -0.705,-1.061 -1.249,-0.141C-1.428,0.15 -1.362,0.47 -1.183,0.695C-1.39,6.733 0.038,13.072 0.695,19.073C1.333,24.886 2.038,30.69 2.714,36.493C-2.695,36.907 -8.039,37.78 -13.466,38.062C-13.542,38.062 -13.598,38.09 -13.664,38.109C-15.392,26.783 -17.711,14.979 -22.209,4.545C-22.312,4.292 -22.425,4.029 -22.538,3.775C-22.698,3.428 -23.158,3.644 -23.177,3.963C-29.722,3.804 -33.356,13.946 -35.413,18.745C-39.038,27.178 -41.254,36.108 -43.414,45.002C-43.414,45.039 -43.405,45.067 -43.414,45.105C-44.494,45.302 -45.574,45.5 -46.645,45.734C-46.983,45.791 -47.321,45.866 -47.659,45.941C-47.828,45.969 -47.95,46.053 -48.044,46.148C-48.326,46.26 -48.551,46.551 -48.485,46.889C-45.687,60.44 -36.099,73.053 -25.797,81.889C-25.553,82.106 -25.271,82.161 -25.018,82.114C-25.722,107.357 -24.952,132.685 -24.802,157.928C-24.727,171.019 -24.717,184.109 -24.463,197.2C-24.266,207.549 -24.857,218.78 -22.285,228.895C-20.134,237.318 -14.528,242.981 -5.775,244.258C2.498,245.46 10.724,242.953 15.289,235.628C20.651,227.045 19.552,216.668 18.725,207.061C17.608,194.008 16.49,180.954 15.373,167.9" style="fill:rgb(77,102,102);fill-rule:nonzero;"/>
            </g>
            <g transform="matrix(1,0,0,1,84.0802,269.937)">
                <path d="M0,4.453C0.159,2.992 1.144,0.391 2.886,0.317C4.721,0.24 4.326,3.85 4.6,5.037C4.699,5.471 5.333,5.442 5.448,5.037C5.957,3.254 5.469,-1.018 2.894,-0.947C0.443,-0.881 -0.842,2.416 -0.646,4.453C-0.605,4.869 -0.044,4.866 0,4.453" style="fill:rgb(77,102,102);fill-rule:nonzero;"/>
            </g>
            <g transform="matrix(1,0,0,1,89.6095,277.79)">
                <path d="M0,3.638C0.332,2.014 0.266,-0.455 -0.484,-1.949C-0.56,-2.098 -0.773,-2.045 -0.82,-1.905C-1.349,-0.326 -0.224,3.829 -2.09,4.508C-3.46,5.007 -4.587,3.35 -4.883,2.247C-5.199,1.074 -5.067,-0.312 -5.095,-1.523C-5.114,-2.287 -6.302,-2.29 -6.284,-1.523C-6.24,0.351 -6.529,2.389 -5.383,3.99C-4.663,4.994 -3.668,5.928 -2.349,5.795C-1.161,5.676 -0.236,4.796 0,3.638" style="fill:rgb(77,102,102);fill-rule:nonzero;"/>
            </g>
            <g transform="matrix(1,0,0,1,92.5631,271.844)">
                <path d="M0,0.088C0.289,-0.524 0.504,-1.131 0.952,-1.65C1.936,-2.792 3.625,-3.171 4.407,-1.577C5.205,0.045 4.814,2.057 4.984,3.793C5.031,4.275 5.791,4.473 5.899,3.917C6.324,1.74 6.347,-2.761 3.704,-3.658C1.562,-4.385 -0.776,-2.087 -0.456,0.028C-0.424,0.236 -0.087,0.274 0,0.088" style="fill:rgb(77,102,102);fill-rule:nonzero;"/>
            </g>
            <g transform="matrix(1,0,0,1,94.2633,273.443)">
                <path d="M0,8.937C3.23,10.031 4.343,5.8 3.814,3.521C3.725,3.138 3.221,3.272 3.18,3.607C3.043,4.737 3.124,6.147 2.323,7.041C1.841,7.581 0.146,7.82 -0.345,7.262C-0.696,6.865 -0.841,6.2 -0.966,5.706C-1.471,3.71 -1.305,1.651 -1.293,-0.382C-1.29,-1.094 -2.334,-1.077 -2.387,-0.382C-2.57,2.04 -3.091,7.89 0,8.937" style="fill:rgb(77,102,102);fill-rule:nonzero;"/>
            </g>
            <g transform="matrix(1,0,0,1,102.609,274.09)">
                <path d="M0,7.956C3.358,9.383 4.827,4.876 3.928,2.422C3.842,2.19 3.455,2.132 3.397,2.422C3.217,3.329 3.333,4.266 3.078,5.163C2.854,5.947 2.119,7.278 1.042,7.06C0.174,6.883 -0.483,6.152 -0.716,5.359C-1.288,3.424 -0.86,1.262 -0.906,-0.717C-0.919,-1.261 -1.782,-1.427 -1.893,-0.851C-2.353,1.521 -2.85,6.744 0,7.956" style="fill:rgb(77,102,102);fill-rule:nonzero;"/>
            </g>
        </g>
        <g transform="matrix(1,0,0,1,-9.18087,12.3438)">
            <path d="M903.782,409.78C903.869,409.923 844.085,433.338 839.776,474.284C837.062,500.075 849.696,519.447 858.573,530.544C861.535,534.246 862.88,533.366 873.404,531.743C887.745,529.531 898.528,521.91 897.537,518.69C897.288,517.882 886.942,503.812 892.439,495.567C892.609,495.311 896.176,490.973 896.192,490.586C897.593,458.067 890.546,434.238 903.782,409.78" style="fill:rgb(247,76,0);"/>
            <path d="M903.328,409.035C903.328,409.035 903.328,409.035 903.328,409.035C903.594,408.874 903.924,408.866 904.197,409.013C904.333,409.087 904.446,409.194 904.527,409.327C904.585,409.423 904.624,409.529 904.642,409.64C904.658,409.734 904.658,409.832 904.641,409.928C904.626,410.019 904.595,410.109 904.549,410.195C904.542,410.208 904.535,410.22 904.528,410.233C898,422.314 896.488,434.244 896.421,447.165C896.353,460.254 897.764,474.352 897.064,490.624L896.978,490.989C896.919,491.13 896.761,491.394 896.525,491.73C895.602,493.042 893.3,495.847 893.164,496.05C891.108,499.135 891.488,503.094 892.621,506.779C894.047,511.421 896.715,515.65 897.798,517.401C898.137,517.95 898.334,518.315 898.37,518.434C898.542,518.991 898.501,519.642 898.205,520.357C897.859,521.188 897.139,522.148 896.066,523.149C892.253,526.708 883.791,531.023 873.537,532.605C869.299,533.259 866.54,533.791 864.564,533.957C862.906,534.097 861.744,533.98 860.744,533.541C859.744,533.103 858.891,532.337 857.892,531.088C848.916,519.868 836.164,500.271 838.909,474.193C840.482,459.242 849.32,446.581 860.019,436.511C875.937,421.529 895.944,412.293 901.775,409.718C902.613,409.347 903.222,409.081 903.328,409.035ZM901.867,411.585C895.423,414.463 876.426,423.464 861.215,437.781C850.816,447.568 842.173,459.844 840.643,474.375C837.96,499.878 850.476,519.026 859.254,529.999C860.032,530.971 860.665,531.602 861.444,531.944C862.221,532.284 863.129,532.328 864.417,532.219C866.367,532.055 869.089,531.526 873.271,530.881C883.094,529.366 891.223,525.284 894.876,521.874C895.595,521.203 896.133,520.568 896.45,519.986C896.657,519.606 896.783,519.274 896.714,518.986C896.673,518.915 896.501,518.62 896.314,518.318C895.191,516.502 892.433,512.108 890.953,507.292C889.664,503.095 889.372,498.595 891.713,495.083C891.864,494.856 894.715,491.39 895.328,490.384C896.011,474.206 894.609,460.181 894.676,447.156C894.741,434.724 896.14,423.195 901.867,411.585Z" style="fill:rgb(247,76,0);"/>
        </g>
        <g transform="matrix(1.08425,-0.146756,0.111929,0.826945,-289.368,364.651)">
            <g transform="matrix(2,0,0,2,907.858,31.2961)">
                <path d="M0,144.312C-13.254,146.909 -26.702,146.413 -40.071,145.119C-54.097,143.753 -67.918,142.893 -81.987,142.335C-82.307,142.317 -82.457,141.883 -82.262,141.687C-82.218,141.652 -82.164,141.617 -82.085,141.608C-69.69,139.799 -56.623,141.856 -44.193,143.106C-43.644,143.159 -43.086,143.212 -42.536,143.266C-33.404,144.125 -24.246,144.87 -15.115,144.56C-10.177,144.4 -5.257,143.931 -0.354,143.018C0.258,142.902 0.621,143.549 0.443,143.975C0.373,144.134 0.23,144.268 0,144.312M-86.464,142.929C-94.204,142.849 -101.925,142.042 -109.673,141.998C-117.422,141.954 -125.144,142.867 -132.866,142.796C-133.149,142.796 -133.283,142.495 -133.203,142.282C-133.176,142.184 -133.096,142.104 -132.963,142.078C-125.472,140.411 -117.325,140.535 -109.673,140.58C-102.865,140.615 -95.835,140.695 -89.026,141.563C-88.122,141.679 -87.227,141.812 -86.331,141.954C-85.764,142.042 -85.914,142.937 -86.464,142.929M-136.235,144.161C-142.095,144.923 -148.159,145.039 -154.072,145.136C-159.436,145.234 -165.029,145.411 -170.313,144.356C-170.668,144.285 -170.73,143.931 -170.597,143.673C-170.508,143.532 -170.367,143.425 -170.18,143.416C-164.541,143.239 -158.876,143.727 -153.221,143.603C-152.37,143.585 -151.519,143.558 -150.667,143.522C-145.854,143.328 -141.031,142.929 -136.235,143C-135.463,143.008 -135.517,144.063 -136.235,144.161M-190.837,112.645C-191.369,112.37 -190.987,111.572 -190.447,111.714C-186.98,112.574 -183.47,113.265 -179.941,113.814C-165.624,116.066 -150.898,116.075 -136.465,115.748C-135.463,115.721 -135.472,117.254 -136.465,117.299C-138.521,117.388 -140.57,117.45 -142.618,117.494L-142.662,117.494C-150.605,117.662 -158.54,117.494 -166.475,116.979C-174.4,116.474 -183.665,116.448 -190.837,112.645M-145.18,111.128C-143.158,110.676 -140.978,110.845 -138.903,110.836C-136.926,110.836 -134.887,110.703 -132.928,111.04C-132.91,110.605 -132.883,110.171 -132.866,109.737C-133.983,109.728 -135.108,109.63 -136.217,109.524C-137.263,109.435 -138.318,109.409 -139.293,108.983C-139.585,108.85 -139.471,108.424 -139.213,108.345C-138.087,107.99 -136.855,108.141 -135.685,108.176C-134.718,108.203 -133.744,108.256 -132.777,108.354C-132.724,107.343 -132.662,106.333 -132.6,105.313C-133.823,105.472 -135.242,105.109 -136.323,104.71C-136.616,104.604 -136.554,104.222 -136.252,104.196C-135.579,104.125 -134.931,104.054 -134.257,104.019C-133.69,103.983 -133.087,103.859 -132.511,103.885C-132.432,102.564 -132.352,101.252 -132.263,99.932C-132.724,100.144 -133.327,100.073 -133.85,100.073C-134.603,100.091 -135.401,100.188 -136.11,99.905C-136.394,99.79 -136.5,99.408 -136.199,99.231C-135.534,98.841 -134.745,98.823 -133.992,98.726C-133.371,98.646 -132.733,98.46 -132.183,98.717C-131.935,94.967 -131.678,91.208 -131.447,87.458C-130.906,78.664 -130.472,69.816 -128.664,61.172C-126.802,52.235 -122.821,44.345 -119.018,36.127C-114.949,27.351 -113.042,18.449 -110.613,9.176C-110.516,8.813 -109.975,8.893 -109.975,9.265C-109.975,10.55 -110.037,11.827 -110.162,13.077C-111.695,29.593 -122.6,43.353 -126.438,59.275C-131.021,78.282 -129.958,98.708 -131.633,118.114C-131.722,119.134 -133.3,119.169 -133.256,118.114C-133.238,117.547 -133.211,116.971 -133.185,116.403C-133.132,115.012 -133.061,113.628 -132.99,112.237C-134.931,112.485 -136.944,112.272 -138.903,112.184C-140.978,112.095 -143.167,112.175 -145.18,111.634C-145.428,111.572 -145.437,111.182 -145.18,111.128M-136.775,13.396C-136.643,12.917 -135.844,13.006 -135.889,13.52C-136.819,23.893 -137.733,33.866 -137.724,44.31C-137.724,45.108 -138.868,45.072 -138.947,44.31C-139.94,34.336 -139.461,23.095 -136.775,13.396M-109.576,26.411C-107.9,21.339 -107.51,16.091 -106.11,11.002C-106.101,10.994 -106.101,10.985 -106.101,10.985C-106.101,10.958 -106.092,10.932 -106.083,10.914C-105.995,10.604 -105.596,10.701 -105.569,10.976C-104.939,16.411 -106.677,22.43 -108.424,27.51C-110.073,32.306 -112.103,37.377 -115.489,41.198C-115.693,41.437 -116.172,41.189 -116.039,40.879C-115.95,40.666 -115.862,40.454 -115.755,40.241C-115.755,40.232 -115.747,40.223 -115.747,40.214C-113.743,35.568 -111.181,31.26 -109.576,26.411M-104.425,-1.081C-104.292,-1.489 -104.133,-1.879 -103.929,-2.242C-103.902,-2.322 -103.849,-2.402 -103.805,-2.482C-103.485,-3.093 -103.113,-3.643 -102.679,-4.14C-100.471,-6.648 -96.686,-6.533 -93.628,-6.675C-89.097,-6.879 -83.973,-7.198 -79.487,-6.356C-77.448,-5.975 -75.816,-5.292 -75.223,-3.227C-75.151,-2.969 -75.471,-2.801 -75.648,-2.969C-75.684,-2.996 -75.71,-3.031 -75.745,-3.049C-79.558,-6.48 -87.165,-5.46 -91.925,-5.328C-96.385,-5.212 -101.518,-4.902 -103.211,0.089C-103.956,2.288 -104.363,4.593 -104.709,6.871C-104.78,7.376 -105.25,7.483 -105.614,7.314C-105.915,7.19 -106.145,6.889 -106.083,6.49C-105.737,4.211 -105.383,1.357 -104.425,-1.081M-88.583,121.279C-102.395,122.618 -117.377,121.909 -131.057,119.657C-131.624,119.568 -131.474,118.646 -130.924,118.664C-128.974,118.744 -127.032,118.841 -125.082,118.965C-119.984,119.25 -114.887,119.613 -109.78,119.772C-106.651,119.87 -103.521,119.861 -100.392,119.834C-96.446,119.799 -92.52,119.737 -88.583,119.834C-87.634,119.861 -87.679,121.191 -88.583,121.279M-64.212,119.843C-57.19,119.879 -50.16,119.79 -43.139,119.675C-42.199,119.657 -42.217,121.066 -43.139,121.128C-50.453,121.634 -57.767,121.829 -65.09,121.758C-71.739,121.687 -78.857,122.006 -85.364,120.499C-85.808,120.393 -85.648,119.816 -85.268,119.772C-78.379,118.965 -71.145,119.816 -64.212,119.843M-69.603,10.453L-69.603,10.444C-69.584,9.841 -69.549,9.238 -69.496,8.626C-69.442,8.041 -68.636,8.041 -68.592,8.626C-67.731,19.248 -64.594,28.618 -60.09,38.228C-56.393,46.109 -52.358,53.867 -49.841,62.236C-47.173,71.101 -45.63,80.41 -44.203,89.559C-44.193,89.621 -44.186,89.674 -44.176,89.736C-44.097,90.242 -44.017,90.756 -43.937,91.261C-43.626,93.256 -43.343,95.259 -43.067,97.263C-43.05,97.263 -43.023,97.254 -43.006,97.254C-41.117,97.041 -39.176,97.192 -37.279,97.041C-36.986,97.023 -36.933,97.476 -37.208,97.547C-39.008,97.99 -40.94,98.54 -42.828,98.531L-42.908,98.531C-42.767,99.604 -42.643,100.676 -42.527,101.749L-42.447,101.749C-41.906,101.713 -41.356,101.775 -40.834,101.82C-40.115,101.864 -39.371,101.811 -38.68,102.015C-38.511,102.059 -38.484,102.29 -38.626,102.378C-39.282,102.777 -40.08,102.893 -40.825,103.017C-41.295,103.105 -41.818,103.167 -42.306,103.141L-42.377,103.141C-42.252,104.364 -42.155,105.588 -42.057,106.811C-42.057,106.838 -42.049,106.864 -42.049,106.891C-39.61,106.705 -37.164,106.51 -34.726,106.368C-34.291,106.341 -34.256,106.971 -34.628,107.095C-36.969,107.875 -39.469,108.256 -41.941,108.3C-41.88,109.196 -41.835,110.1 -41.791,111.004C-37.358,110.854 -32.917,109.737 -28.528,109.816C-28.218,109.816 -28.05,110.286 -28.36,110.437C-32.252,112.29 -37.438,112.388 -41.747,112.476C-41.702,114.152 -41.676,115.836 -41.702,117.52C-41.702,117.716 -41.702,117.911 -41.712,118.105C-41.738,119.001 -43.112,119.001 -43.112,118.105C-43.112,107.786 -44.345,97.688 -46.127,87.538C-47.784,78.131 -49.318,68.53 -52.465,59.479C-57.979,43.556 -70.196,27.962 -69.603,10.453M-11.604,114.958C-3.546,114.223 4.247,113.549 11.428,109.604C11.729,109.435 12.022,109.657 12.058,109.923C12.084,110.047 12.049,110.171 11.951,110.277C7.287,115.278 -0.975,115.535 -7.331,116.27C-16.676,117.361 -26.215,117.99 -35.621,117.467C-35.896,117.45 -36.091,117.326 -36.215,117.148C-36.517,116.714 -36.321,115.969 -35.621,115.96C-27.589,115.792 -19.61,115.694 -11.604,114.958M24.69,130.03C24.238,127.636 23.901,125.216 23.609,122.787C23.573,122.538 23.538,122.281 23.512,122.033C21.836,124.045 20.338,126.12 18.866,128.221C17.146,130.65 15.471,133.115 13.617,135.517C11.224,138.603 8.165,141.484 4.389,142.521C3.582,142.743 2.749,142.884 1.88,142.92C1.445,142.937 1.393,142.308 1.782,142.184C8.671,140.074 12.155,135.349 15.958,129.524C18.023,126.342 20.151,122.831 23.352,120.668C23.068,118.238 22.812,115.81 22.519,113.398C22.323,111.882 22.341,109.258 21.801,107.884C21.286,106.554 19.903,105.605 18.901,104.692C16.96,102.928 15.054,101.146 13.263,99.24C13.636,106.27 14.495,113.717 19.912,118.194C20.675,118.824 19.593,119.879 18.84,119.276C15.551,116.625 13.919,113.043 13.023,109.178C12.563,107.246 12.306,105.242 12.11,103.238C12.049,102.636 11.995,102.033 11.951,101.438C11.171,91.749 10.63,82.041 8.29,72.564C6.153,63.885 2.775,55.542 -1.702,47.803C-4.104,43.645 -6.817,39.682 -9.805,35.915C-11.933,33.237 -14.433,30.79 -16.33,27.936C-15.771,30.382 -15.559,32.98 -15.169,35.577C-13.918,43.743 -12.668,51.908 -11.516,60.082C-11.4,60.879 -12.606,61.243 -12.748,60.427C-13.776,54.328 -14.734,48.21 -15.709,42.103C-16.543,36.854 -16.587,30.436 -18.617,25.506C-20.771,20.267 -27.545,16.783 -32.234,14.025C-35,12.386 -38.156,10.223 -41.437,9.149C-37.73,16.189 -35.719,24.513 -34.096,32.217C-32.332,40.516 -31.339,48.999 -31.33,57.493C-31.33,58.326 -32.58,58.309 -32.625,57.493C-33.086,48.858 -33.98,40.303 -35.815,31.845C-37.536,23.937 -40.55,16.543 -42.713,8.786C-44.478,8.378 -46.269,8.352 -48.059,8.937C-48.077,8.955 -48.077,8.981 -48.104,8.999C-48.432,9.176 -48.741,9.398 -49.034,9.628C-48.608,9.957 -48.192,10.275 -47.767,10.612C-47.936,10.409 -47.722,10.081 -47.474,10.231C-44.628,11.96 -43.75,14.957 -42.953,18.033C-41.649,23.024 -40.665,28.122 -39.726,33.184C-37.873,43.14 -35.559,53.911 -35.799,64.071C-35.807,64.567 -36.578,64.7 -36.685,64.186C-38.528,55.25 -38.963,45.977 -40.532,36.96C-41.313,32.439 -42.208,27.936 -43.174,23.45C-43.893,20.125 -44.415,16.783 -45.816,13.769C-50.311,10.958 -54.575,7.758 -58.964,4.788C-59.256,4.575 -59.558,4.38 -59.858,4.176C-63.946,1.445 -68.601,-0.966 -72.315,-4.228C-71.393,-1.214 -70.507,1.809 -69.61,4.832C-69.371,5.639 -70.267,6.1 -70.861,5.807L-70.869,5.807C-71.056,5.71 -71.207,5.55 -71.286,5.284C-72.315,1.809 -73.068,-5.966 -76.464,-7.774C-79.487,-9.379 -86.118,-8.989 -89.514,-9.051C-93.406,-9.113 -97.289,-8.9 -101.154,-8.431C-103.84,-8.812 -105.631,-7.668 -106.544,-5C-106.854,-3.909 -107.174,-2.819 -107.51,-1.737C-107.98,-0.106 -108.468,1.525 -108.894,3.174L-108.894,3.192C-109.036,3.733 -109.168,4.273 -109.292,4.823C-109.346,5.054 -109.656,4.947 -109.629,4.735C-109.372,2.917 -109.292,-0.177 -108.778,-3.014C-114.31,0.373 -120.418,2.749 -126.394,5.391C-129.612,6.809 -132.794,8.307 -135.818,10.081C-135.827,10.089 -135.827,10.089 -135.835,10.089C-135.782,10.355 -135.721,10.63 -135.667,10.896C-135.552,11.508 -136.403,11.756 -136.598,11.153C-137.582,8.183 -138.22,7.802 -140.446,8.857C-141.075,15.036 -142.538,21.1 -142.946,27.333C-143.362,33.778 -143.176,40.214 -142.511,46.633C-142.414,47.563 -143.876,47.555 -143.965,46.633C-145.18,34.859 -145.543,20.719 -141.367,9.327C-141.607,9.46 -141.864,9.593 -142.13,9.735C-144.187,10.852 -146.155,12.182 -148.097,13.485C-152.254,16.277 -156.66,19.185 -160.242,22.714C-164.302,26.721 -164.063,34.815 -164.515,40.152C-164.932,45.152 -165.012,50.144 -165.038,55.152C-165.038,56.136 -166.528,56.136 -166.554,55.152C-166.731,49.044 -166.412,42.909 -165.756,36.828C-165.57,35.055 -165.455,33.068 -165.216,31.083C-170.411,36.934 -175.801,42.501 -180.012,49.159C-184.524,56.313 -187.228,64.115 -189.152,72.316C-191.28,81.341 -192.539,90.579 -192.938,99.843C-193.204,105.8 -191.28,114.027 -195.464,118.948C-196.227,119.843 -197.486,118.558 -196.75,117.662C-193.7,114.001 -195.039,107.564 -194.95,103.141C-194.933,102.201 -194.897,101.252 -194.862,100.304C-197.379,101.554 -199.809,103.938 -201.555,106.04C-203.833,108.779 -204.427,111.439 -204.844,114.905C-205.03,116.448 -205.19,117.999 -205.34,119.551C-200.11,120.34 -195.863,123.859 -192.485,127.831C-190.526,130.136 -188.762,132.618 -186.705,134.844C-183.408,138.398 -179.64,140.216 -175.198,142.016C-174.852,142.158 -174.746,142.503 -174.826,142.778C-174.905,143.044 -175.145,143.239 -175.508,143.142C-181.696,141.457 -185.961,138.514 -190.03,133.611C-192.096,131.12 -194.019,128.469 -196.369,126.226C-199.073,123.629 -202.113,122.166 -205.456,120.765C-205.713,123.646 -205.926,126.528 -206.085,129.409C-201.28,130.366 -196.918,133.815 -193.115,136.705C-188.212,140.446 -183.345,144.063 -177.406,145.987C-171.315,147.956 -164.781,147.698 -158.451,147.769C-151.341,147.849 -144.249,147.769 -137.192,146.785C-137.103,146.697 -136.988,146.625 -136.829,146.608C-129.311,145.606 -121.42,145.96 -113.832,145.872C-106.757,145.792 -99.682,145.819 -92.607,145.881C-78.458,146.005 -64.301,146.315 -50.169,146.927C-25.257,148 7.847,153.691 24.806,130.295C24.753,130.225 24.708,130.136 24.69,130.03" style="fill:rgb(255,235,0);fill-rule:nonzero;"/>
            </g>
            <g transform="matrix(2,0,0,2,757.229,262.351)">
                <path d="M0,-115.887C-0.098,-117.289 -0.236,-118.794 -1.143,-119.868C-2.112,-121.018 -3.711,-121.378 -5.197,-121.608C-10.518,-122.43 -15.961,-122.455 -21.289,-121.68C-23.796,-121.316 -26.492,-120.648 -28.052,-118.652C-29.328,-117.017 -29.574,-114.831 -29.789,-112.768C-31.013,-101.007 -32.86,-89.013 -38.526,-78.634C-39.938,-76.047 -41.581,-73.574 -42.72,-70.856C-44.071,-67.63 -44.676,-64.145 -45.115,-60.675C-45.678,-56.223 -45.985,-51.744 -46.292,-47.268C-47.469,-30.09 -48.647,-12.911 -49.824,4.267C-40.982,5.681 -35.663,6.568 -26.34,5.018C-25.839,4.934 -25.346,4.674 -25.045,4.265C-24.794,3.924 -24.73,3.484 -24.674,3.064C-21.782,-18.641 -18.603,-40.957 -7.673,-59.93C-5.224,-64.183 -2.394,-68.246 -0.509,-72.777C5.216,-86.534 1.001,-101.638 0,-115.887" style="fill:rgb(255,240,131);fill-rule:nonzero;"/>
            </g>
            <g transform="matrix(2,0,0,2,934.136,39.8089)">
                <path d="M0,104.833C-0.035,104.869 -0.079,104.895 -0.115,104.922C-0.426,105.188 -0.754,105.436 -1.081,105.666C-6.835,109.842 -14.504,110.516 -21.676,111.003C-30.896,111.633 -40.124,112.262 -49.354,112.892C-51.18,113.016 -53.015,113.14 -54.841,113.264C-55.107,113.282 -55.382,113.3 -55.648,113.317C-55.125,109.771 -55.027,106.208 -55.188,102.634C-55.188,102.608 -55.195,102.582 -55.195,102.555C-55.249,101.332 -55.338,100.108 -55.444,98.884C-55.488,98.423 -55.533,97.962 -55.586,97.493C-55.692,96.42 -55.825,95.347 -55.967,94.274C-56.021,93.849 -56.082,93.423 -56.145,92.998C-56.49,90.48 -56.898,87.971 -57.314,85.48C-57.324,85.418 -57.332,85.365 -57.342,85.303C-58.946,75.551 -60.577,65.728 -63.938,56.428C-66.012,50.692 -68.716,45.222 -71.481,39.788C-73.068,36.676 -74.673,33.573 -75.95,30.328C-77.634,26.046 -78.733,21.56 -79.833,17.092C-80.711,13.493 -81.73,9.858 -82.741,6.197L-82.741,6.187C-83.166,4.645 -83.592,3.103 -84,1.551C-83.405,1.844 -82.51,1.383 -82.749,0.576C-83.646,-2.447 -84.531,-5.47 -85.454,-8.484C-81.739,-5.222 -77.085,-2.811 -72.997,-0.08C-72.696,0.124 -72.395,0.319 -72.103,0.531C-70.896,12.881 -67.847,24.823 -63.893,36.569C-61.588,43.414 -59.034,50.169 -56.464,56.916C-54.851,61.18 -53.219,65.453 -50.994,69.434C-49.105,72.811 -46.809,75.95 -44.451,79.026C-41.605,82.75 -38.626,86.437 -34.938,89.336C-25.55,96.704 -12.926,97.989 -1.028,98.982C-0.993,98.982 -0.957,98.991 -0.922,98.991C-0.611,100.941 -0.301,102.883 0,104.833" style="fill:rgb(255,224,0);fill-rule:nonzero;"/>
            </g>
            <g transform="matrix(2,0,0,2,689.273,250.805)">
                <path d="M0,-104.931C0.124,-105.481 0.257,-106.021 0.399,-106.562C0.08,-103.246 -0.319,-99.949 -0.869,-96.677C-1.569,-92.395 -2.527,-88.166 -3.901,-84.053C-7.42,-73.459 -13.555,-63.884 -17.021,-53.272C-23.104,-34.628 -20.523,-14.362 -23.209,5.062C-23.272,5.506 -23.343,5.966 -23.591,6.339C-23.68,6.463 -23.777,6.569 -23.892,6.649C-24.3,6.995 -24.859,7.146 -25.399,7.261C-27.997,7.802 -30.666,7.837 -33.325,7.74L-33.37,7.74C-34.097,7.713 -34.814,7.677 -35.533,7.642C-48.086,7.013 -60.631,6.082 -73.14,4.859C-72.307,4.61 -71.473,4.344 -70.648,4.06C-66.18,2.5 -61.916,0.266 -58.627,-3.112C-47.793,-14.264 -50.888,-33.653 -41.171,-45.781C-38.742,-48.795 -35.648,-51.198 -32.926,-53.955C-25.639,-61.34 -21.242,-71.216 -19.007,-81.358C-17.323,-89 -17.846,-96.739 -17.102,-104.364C-11.126,-107.005 -5.018,-109.381 0.514,-112.768C0,-109.931 -0.08,-106.837 -0.337,-105.019C-0.363,-104.807 -0.053,-104.701 0,-104.931" style="fill:rgb(255,224,0);fill-rule:nonzero;"/>
            </g>
            <g transform="matrix(2,0,0,2,957.47,319.619)">
                <path d="M0,-13.866C-16.959,9.53 -50.063,3.839 -74.975,2.766C-89.106,2.154 -103.264,1.843 -117.413,1.719C-124.488,1.657 -131.563,1.631 -138.637,1.711C-146.226,1.799 -154.117,1.445 -161.634,2.446C-161.793,2.464 -161.909,2.535 -161.998,2.624C-169.054,3.608 -176.146,3.688 -183.257,3.608C-189.587,3.537 -196.121,3.794 -202.211,1.826C-208.151,-0.098 -213.018,-3.715 -217.92,-7.456C-221.724,-10.346 -226.085,-13.795 -230.891,-14.752C-230.731,-17.634 -230.519,-20.515 -230.261,-23.396C-226.919,-21.995 -223.878,-20.533 -221.174,-17.935C-218.825,-15.692 -216.901,-13.041 -214.835,-10.55C-210.767,-5.648 -206.502,-2.704 -200.314,-1.02C-199.95,-0.922 -199.711,-1.117 -199.631,-1.384C-198.24,-0.993 -196.821,-0.701 -195.402,-0.488C-195.11,-0.435 -194.817,-0.39 -194.525,-0.355C-188.213,0.469 -181.83,-0.08 -175.473,-0.639C-174.773,-0.692 -174.082,-0.754 -173.381,-0.816C-168.256,-1.259 -163.132,-1.614 -158.008,-1.88C-143.3,-2.669 -128.566,-2.828 -113.832,-2.598C-111.571,-2.571 -109.319,-2.527 -107.067,-2.474C-94.381,-2.19 -81.686,-1.667 -68.999,-1.055C-59.301,-0.595 -49.61,-0.08 -39.921,0.399C-39.193,0.434 -38.467,0.469 -37.74,0.505C-33.29,0.717 -28.626,0.877 -24.362,-0.187C-22.997,-0.532 -21.676,-1.002 -20.417,-1.64C-20.098,-1.791 -19.788,-1.969 -19.478,-2.146C-16.437,-3.919 -14.061,-6.623 -11.746,-9.283C-9.805,-11.499 -7.872,-13.715 -5.939,-15.94C-4.361,-17.749 -2.774,-19.557 -1.196,-21.375C-0.904,-18.946 -0.567,-16.526 -0.115,-14.132C-0.098,-14.025 -0.053,-13.937 0,-13.866" style="fill:rgb(255,206,0);fill-rule:nonzero;"/>
            </g>
            <g transform="matrix(1.99905,0.0615044,0.0615044,-1.99905,631.462,119.905)">
                <path d="M0.47,0.012C0.143,10.445 0.747,20.445 1.357,30.844C1.388,31.36 0.587,31.418 0.47,30.937C-1.916,21.16 -2.051,9.908 -0.748,-0.025C-0.649,-0.787 0.495,-0.788 0.47,0.012" style="fill:rgb(77,102,102);fill-rule:nonzero;"/>
            </g>
            <g transform="matrix(2,0,0,2,644.585,51.0347)">
                <path d="M0,108.243C1.677,88.841 0.617,68.415 5.202,49.401C9.332,32.276 21.644,17.64 21.666,-0.609C21.666,-0.973 21.12,-1.054 21.026,-0.695C18.59,8.582 16.684,17.479 12.618,26.262C8.813,34.48 4.836,42.363 2.971,51.302C1.168,59.943 0.735,68.798 0.189,77.585C-0.043,81.339 -0.296,85.094 -0.544,88.849C-1.093,88.594 -1.73,88.78 -2.354,88.86C-3.107,88.957 -3.896,88.974 -4.566,89.363C-4.862,89.535 -4.758,89.922 -4.478,90.034C-3.762,90.32 -2.965,90.219 -2.209,90.207C-1.688,90.2 -1.091,90.278 -0.624,90.063C-0.711,91.379 -0.794,92.696 -0.877,94.013C-1.451,93.993 -2.055,94.114 -2.622,94.145C-3.298,94.184 -3.946,94.259 -4.619,94.324C-4.916,94.352 -4.976,94.736 -4.689,94.841C-3.607,95.238 -2.182,95.602 -0.963,95.447C-1.024,96.46 -1.085,97.472 -1.143,98.486C-2.109,98.389 -3.082,98.336 -4.051,98.306C-5.215,98.27 -6.45,98.125 -7.574,98.477C-7.83,98.558 -7.946,98.983 -7.656,99.111C-6.683,99.539 -5.628,99.563 -4.579,99.658C-3.47,99.758 -2.344,99.857 -1.226,99.869C-1.25,100.304 -1.272,100.739 -1.295,101.175C-3.247,100.831 -5.292,100.968 -7.268,100.97C-9.338,100.972 -11.518,100.806 -13.545,101.258C-13.803,101.316 -13.789,101.701 -13.545,101.766C-11.535,102.305 -9.34,102.228 -7.268,102.318C-5.31,102.403 -3.298,102.617 -1.35,102.368C-1.449,104.326 -1.548,106.285 -1.621,108.243C-1.66,109.297 -0.089,109.268 0,108.243" style="fill:rgb(77,102,102);fill-rule:nonzero;"/>
            </g>
            <g transform="matrix(2,0,0,2,815.603,110.308)">
                <path d="M0,48.035C1.784,58.181 3.015,68.284 3.015,78.597C3.016,79.498 4.393,79.496 4.414,78.597C4.46,76.719 4.438,74.842 4.381,72.967C8.686,72.88 13.88,72.785 17.771,70.927C18.082,70.779 17.914,70.313 17.604,70.308C13.211,70.227 8.77,71.35 4.333,71.502C4.294,70.597 4.245,69.694 4.187,68.79C6.658,68.751 9.157,68.366 11.5,67.585C11.874,67.461 11.837,66.839 11.402,66.864C8.963,67.007 6.519,67.195 4.081,67.382C3.985,66.132 3.874,64.884 3.747,63.636C4.266,63.666 4.804,63.596 5.301,63.512C6.049,63.386 6.843,63.275 7.498,62.872C7.645,62.783 7.618,62.553 7.449,62.505C6.754,62.308 6.016,62.361 5.299,62.311C4.748,62.273 4.165,62.202 3.604,62.246C3.486,61.172 3.358,60.098 3.222,59.026C5.137,59.055 7.092,58.49 8.917,58.041C9.192,57.973 9.143,57.514 8.85,57.537C6.936,57.686 4.968,57.536 3.057,57.756C2.79,55.752 2.499,53.752 2.189,51.757C0.684,42.056 -0.877,32.142 -3.71,22.73C-6.229,14.362 -10.261,6.606 -13.96,-1.278C-18.468,-10.886 -21.603,-20.261 -22.464,-30.883C-22.511,-31.463 -23.315,-31.462 -23.364,-30.883C-24.921,-12.621 -12.051,3.504 -6.336,19.972C-3.193,29.026 -1.655,38.621 0,48.035" style="fill:rgb(77,102,102);fill-rule:nonzero;"/>
            </g>
            <g transform="matrix(2,0,0,2,646.019,276.492)">
                <path d="M0,-3.932C-0.558,-3.954 -0.704,-3.033 -0.134,-2.939C13.544,-0.689 28.527,0.022 42.337,-1.32C43.244,-1.409 43.281,-2.737 42.337,-2.761C35.277,-2.938 28.21,-2.606 21.144,-2.828C14.088,-3.051 7.053,-3.652 0,-3.932" style="fill:rgb(77,102,102);fill-rule:nonzero;"/>
            </g>
            <g transform="matrix(2,0,0,2,821.571,270.982)">
                <path d="M0,1.286C0.924,1.223 0.946,-0.184 0,-0.169C-7.021,-0.053 -14.044,0.038 -21.066,0.004C-28,-0.03 -35.234,-0.88 -42.126,-0.067C-42.505,-0.022 -42.662,0.552 -42.224,0.654C-35.711,2.166 -28.596,1.845 -21.944,1.914C-14.619,1.991 -7.308,1.787 0,1.286" style="fill:rgb(77,102,102);fill-rule:nonzero;"/>
            </g>
            <g transform="matrix(2,0,0,2,836.618,251.061)">
                <path d="M0,7.585C9.406,8.104 18.942,7.481 28.287,6.391C34.649,5.649 42.909,5.394 47.569,0.394C47.901,0.039 47.482,-0.519 47.049,-0.28C39.87,3.665 32.07,4.339 24.018,5.079C16.014,5.813 8.028,5.909 0,6.075C-0.977,6.095 -0.966,7.532 0,7.585" style="fill:rgb(77,102,102);fill-rule:nonzero;"/>
            </g>
            <g transform="matrix(2,0,0,2,634.928,255.315)">
                <path d="M0,5.285C0.993,5.242 1.003,3.711 0,3.734C-17.991,4.147 -36.447,4.037 -53.977,-0.298C-54.524,-0.434 -54.901,0.358 -54.372,0.638C-47.195,4.441 -37.936,4.462 -30.013,4.971C-20.011,5.613 -10.013,5.719 0,5.285" style="fill:rgb(77,102,102);fill-rule:nonzero;"/>
            </g>
            <g transform="matrix(2,0,0,2,757.413,38.8929)">
                <path d="M0,-7.021C-0.599,-9.093 -2.222,-9.773 -4.263,-10.157C-8.749,-11 -13.87,-10.68 -18.406,-10.474C-21.465,-10.334 -25.248,-10.45 -27.46,-7.935C-29.821,-5.25 -30.353,-0.663 -30.862,2.693C-30.998,3.592 -29.622,3.979 -29.486,3.073C-29.143,0.791 -28.731,-1.514 -27.988,-3.705C-26.293,-8.701 -21.163,-9.013 -16.703,-9.13C-11.897,-9.255 -4.212,-10.295 -0.429,-6.772C-0.246,-6.602 0.072,-6.768 0,-7.021" style="fill:rgb(77,102,102);fill-rule:nonzero;"/>
            </g>
            <g transform="matrix(2,0,0,2,676.885,52.9775)">
                <path d="M0,30.36C3.385,26.532 5.417,21.462 7.062,16.671C8.809,11.586 10.544,5.567 9.92,0.139C9.888,-0.139 9.488,-0.237 9.403,0.069C7.983,5.185 7.596,10.477 5.913,15.567C4.233,20.646 1.494,25.141 -0.556,30.037C-0.685,30.346 -0.21,30.597 0,30.36" style="fill:rgb(77,102,102);fill-rule:nonzero;"/>
            </g>
            <g transform="matrix(2,0,0,2,635.389,321.965)">
                <path d="M0,-2.338C-5.651,-2.41 -11.33,-1.847 -16.984,-1.728C-22.639,-1.609 -28.309,-2.099 -33.95,-1.92C-34.466,-1.903 -34.626,-1.091 -34.076,-0.981C-28.792,0.072 -23.198,-0.105 -17.834,-0.194C-11.924,-0.293 -5.864,-0.41 0,-1.174C0.719,-1.268 0.773,-2.328 0,-2.338" style="fill:rgb(77,102,102);fill-rule:nonzero;"/>
            </g>
            <g transform="matrix(2,0,0,2,735.198,314.093)">
                <path d="M0,0.554C-7.633,-0.683 -15.631,-0.785 -23.348,-0.822C-30.992,-0.86 -39.139,-0.985 -46.636,0.677C-47.047,0.768 -46.946,1.394 -46.539,1.398C-38.818,1.47 -31.088,0.554 -23.348,0.598C-15.596,0.641 -7.87,1.45 -0.133,1.533C0.413,1.539 0.568,0.646 0,0.554" style="fill:rgb(77,102,102);fill-rule:nonzero;"/>
            </g>
            <g transform="matrix(2,0,0,2,907.144,318.522)">
                <path d="M0,-0.598C-13.979,2.023 -28.12,0.985 -42.181,-0.344C-55.1,-1.565 -68.782,-3.896 -81.725,-2.004C-82.148,-1.941 -82.021,-1.298 -81.626,-1.283C-67.564,-0.72 -53.736,0.139 -39.718,1.502C-26.342,2.802 -12.896,3.298 0.357,0.697C1.207,0.531 0.846,-0.757 0,-0.598" style="fill:rgb(77,102,102);fill-rule:nonzero;"/>
            </g>
            <g transform="matrix(2,0,0,2,577.579,141.296)">
                <path d="M0,30.278C-1.325,33.877 -2.254,37.708 -4.489,40.825C-6.724,43.943 -10.777,46.198 -14.395,44.924C-16.926,44.033 -18.674,41.594 -19.381,39.005C-20.088,36.416 -19.905,33.674 -19.594,31.008C-17.815,15.748 -8.899,-11.759 9.901,-13.754C30.32,-15.92 2.299,24.032 0,30.278" style="fill:rgb(255,240,131);fill-rule:nonzero;"/>
            </g>
            <g transform="matrix(2,0,0,2,807.522,23.5679)">
                <path d="M0,150.788C-14.137,150.176 -28.291,149.869 -42.44,149.746C-49.516,149.685 -56.593,149.659 -63.668,149.741C-71.249,149.829 -79.141,149.467 -86.662,150.47C-86.818,150.491 -86.936,150.559 -87.024,150.647C-94.079,151.637 -101.173,151.714 -108.286,151.633C-114.611,151.561 -121.145,151.817 -127.235,149.847C-133.18,147.925 -138.048,144.312 -142.951,140.573C-146.748,137.677 -151.113,134.233 -155.92,133.273C-155.757,130.39 -155.546,127.507 -155.286,124.63C-151.947,126.03 -148.909,127.491 -146.198,130.086C-143.851,132.334 -141.927,134.982 -139.857,137.475C-135.789,142.375 -131.53,145.32 -125.341,147.004C-124.6,147.205 -124.356,146.156 -125.032,145.882C-129.471,144.083 -133.244,142.266 -136.534,138.711C-138.595,136.484 -140.357,134.004 -142.321,131.695C-145.697,127.726 -149.939,124.208 -155.174,123.417C-155.024,121.865 -154.864,120.314 -154.678,118.767C-154.26,115.301 -153.665,112.645 -151.386,109.904C-149.639,107.802 -147.212,105.422 -144.692,104.17C-144.729,105.116 -144.763,106.061 -144.782,107.007C-144.872,111.429 -143.534,117.866 -146.581,121.529C-147.321,122.418 -146.058,123.706 -145.298,122.812C-141.113,117.89 -143.032,109.663 -142.772,103.705C-142.368,94.442 -141.112,85.203 -138.988,76.176C-137.06,67.983 -134.356,60.179 -129.841,53.026C-125.633,46.361 -120.247,40.795 -115.052,34.945C-115.29,36.929 -115.399,38.916 -115.591,40.695C-116.246,46.771 -116.563,52.908 -116.39,59.018C-116.362,59.996 -114.871,60.002 -114.866,59.018C-114.845,54.006 -114.767,49.015 -114.345,44.017C-113.894,38.676 -114.136,30.586 -110.072,26.578C-106.495,23.05 -102.088,20.138 -97.926,17.347C-95.986,16.046 -94.018,14.719 -91.962,13.601C-91.692,13.454 -91.443,13.32 -91.204,13.193C-95.373,24.587 -95.009,38.719 -93.799,50.494C-93.705,51.416 -92.249,51.426 -92.345,50.494C-93.004,44.075 -93.196,37.638 -92.776,31.195C-92.37,24.962 -90.903,18.904 -90.277,12.722C-88.056,11.662 -87.417,12.045 -86.434,15.021C-86.237,15.619 -85.387,15.373 -85.499,14.763C-85.549,14.491 -85.61,14.223 -85.664,13.952C-85.66,13.949 -85.656,13.95 -85.651,13.947C-77.015,8.883 -67.125,6.065 -58.611,0.847C-59.124,3.689 -59.208,6.779 -59.461,8.599C-59.49,8.812 -59.178,8.914 -59.127,8.691C-58.622,6.478 -57.974,4.308 -57.339,2.129C-57.004,1.043 -56.682,-0.046 -56.373,-1.139C-55.465,-3.806 -53.668,-4.95 -50.982,-4.57C-47.12,-5.033 -43.235,-5.253 -39.344,-5.184C-35.953,-5.124 -29.323,-5.514 -26.298,-3.907C-22.896,-2.1 -22.146,5.673 -21.115,9.153C-20.799,10.219 -19.128,9.765 -19.445,8.693C-20.34,5.672 -21.229,2.648 -22.15,-0.364C-18.428,2.896 -13.774,5.312 -9.695,8.039C-4.984,11.187 -0.449,14.624 4.352,17.634C5.757,20.645 6.273,23.985 6.992,27.314C7.962,31.802 8.853,36.305 9.639,40.828C11.206,49.839 11.639,59.117 13.487,68.055C13.592,68.564 14.359,68.429 14.371,67.934C14.606,57.773 12.291,47.008 10.443,37.05C9.502,31.982 8.517,26.892 7.219,21.901C6.419,18.823 5.54,15.824 2.694,14.095C2.444,13.943 2.237,14.273 2.401,14.476C2.403,14.478 2.404,14.48 2.406,14.482C1.985,14.148 1.561,13.818 1.133,13.493C1.429,13.259 1.736,13.039 2.062,12.86C2.087,12.846 2.092,12.822 2.11,12.805C3.896,12.216 5.69,12.246 7.457,12.654C9.618,20.403 12.633,27.804 14.351,35.711C16.188,44.165 17.086,52.724 17.548,61.353C17.592,62.175 18.837,62.188 18.836,61.353C18.831,52.863 17.833,44.381 16.076,36.08C14.445,28.382 12.433,20.056 8.73,13.011C12.013,14.086 15.163,16.253 17.937,17.888C22.62,20.648 29.393,24.134 31.547,29.368C33.577,34.296 33.624,40.718 34.459,45.967C35.431,52.077 36.392,58.188 37.423,64.288C37.561,65.104 38.764,64.746 38.651,63.95C37.497,55.77 36.245,47.604 35,39.438C34.605,36.848 34.4,34.244 33.838,31.798C35.734,34.65 38.231,37.104 40.362,39.783C43.354,43.542 46.066,47.508 48.471,51.668C52.938,59.404 56.322,67.748 58.46,76.424C60.795,85.902 61.339,95.612 62.122,105.302C62.652,111.859 63.582,118.759 69.005,123.136C69.759,123.745 70.842,122.687 70.082,122.059C64.663,117.579 63.805,110.139 63.427,103.108C65.221,105.012 67.131,106.789 69.067,108.557C70.069,109.472 71.45,110.422 71.971,111.746C72.51,113.119 72.494,115.746 72.683,117.261C72.983,119.674 73.239,122.104 73.519,124.532C70.321,126.692 68.194,130.203 66.122,133.385C62.325,139.216 58.841,143.937 51.946,146.052C51.556,146.172 51.609,146.806 52.045,146.787C56.992,146.573 60.886,143.126 63.782,139.381C67.247,134.901 70.073,130.23 73.678,125.894C73.997,128.576 74.359,131.25 74.857,133.891C74.878,133.997 74.921,134.085 74.972,134.163C58.017,157.553 24.908,151.866 0,150.788M76.559,133.661C76.118,126.626 75.256,119.146 73.956,112.215C73.118,107.756 67.13,104.19 63.353,101.637C63.261,99.712 63.183,97.834 63.034,96.08C62.298,87.362 61.039,78.757 58.366,70.401C55.979,62.934 52.69,55.746 48.601,49.059C44.811,42.863 39.944,35.117 33.683,31.167C33.059,28.768 32.038,26.539 30.069,24.656C25.601,20.382 20.08,17.255 14.715,14.271C10.666,12.019 6.024,9.34 1.534,11.881C1.282,11.9 1.032,11.952 0.813,12.01C0.516,12.09 0.108,12.25 -0.224,12.479C-2.806,10.593 -5.482,8.828 -8.126,7.058C-12.71,3.988 -17.421,0.251 -22.573,-1.805C-22.854,-2.836 -23.161,-3.983 -23.97,-4.675C-25.332,-5.841 -27.717,-5.737 -29.382,-5.961C-32.685,-6.404 -36.011,-6.66 -39.344,-6.712C-42.675,-6.765 -46.014,-6.613 -49.327,-6.261C-51.189,-6.063 -53.859,-6.158 -55.51,-5.251C-56.926,-4.473 -57.759,-2.721 -58.284,-0.67C-62.686,1.122 -66.93,3.332 -71.304,5.203C-76.315,7.346 -81.354,9.453 -86.01,12.305C-86.125,11.788 -86.242,11.27 -86.361,10.751C-86.442,10.399 -86.826,10.228 -87.154,10.301C-92.227,11.418 -96.544,14.521 -100.749,17.441C-104.504,20.051 -109.379,22.98 -112.235,26.596C-113.725,28.482 -114.439,30.931 -114.848,33.476C-114.865,33.487 -114.882,33.491 -114.899,33.505C-126.13,42.867 -134.954,55.608 -139.092,69.647C-141.416,77.529 -143.001,85.663 -143.917,93.827C-144.258,96.861 -144.492,99.908 -144.637,102.957C-148.663,103.447 -153.582,108.797 -155.163,112.097C-156.422,114.724 -156.43,118.327 -156.752,121.188C-157.207,125.227 -157.509,129.276 -157.725,133.335C-157.763,134.05 -157.094,134.318 -156.56,134.151C-153.97,136.015 -150.894,137.274 -148.22,139.05C-145.467,140.878 -142.941,143.009 -140.278,144.959C-135.647,148.35 -130.544,151.17 -124.902,152.435C-118.968,153.765 -112.651,153.523 -106.604,153.524C-99.799,153.525 -93.042,153.16 -86.322,152.051C-86.033,152.003 -85.883,151.835 -85.821,151.635C-78.227,152.21 -70.39,151.623 -62.783,151.612C-54.823,151.6 -46.863,151.594 -38.902,151.685C-23.573,151.861 -8.248,152.316 7.07,152.944C30.508,153.904 61.238,157.35 76.457,134.915C76.672,134.599 76.623,134.298 76.453,134.076C76.521,133.957 76.569,133.824 76.559,133.661" style="fill:rgb(77,102,102);fill-rule:nonzero;"/>
            </g>
        </g>
    </g>
    <g id="Capa1">
        <g>
            <g transform="matrix(1,0,0,1,0.566422,-0.123956)">
                <path d="M508.696,448.356C510.114,449.425 496.795,442.954 498.815,435.635C499.43,433.404 505.707,436.075 505.707,436.075C504.144,438.692 505.306,442.881 508.696,448.356Z" style="fill:rgb(217,191,3);stroke:rgb(217,191,3);stroke-width:2px;"/>
            </g>
            <g transform="matrix(1,0,0,1,-0.480168,0.709011)">
                <path d="M575.865,437.048C582.424,430.886 583.693,424.961 579.277,419.29L573.659,422.836C577.089,427.032 577.586,431.817 575.865,437.048Z" style="fill:rgb(216,190,3);stroke:rgb(217,191,3);stroke-width:2px;"/>
            </g>
            <path d="M498.816,435.03C497.977,435.163 493.53,435.559 493.027,440.594C492.642,444.45 502.516,451.974 508.67,456.283C492.272,452.218 485.915,446.775 485.014,442.144C483.913,436.488 490.537,431.987 491.819,431.987C491.3,432.354 486.919,424.403 486.756,423.606C486.657,423.121 496.067,421.666 496.314,421.991C494.586,419.524 493.42,416.618 492.749,413.327C495.312,412.403 498.058,412.046 500.954,412.156C499.721,409.499 499.282,406.867 499.586,404.257C502.887,403.727 505.77,403.906 508.421,404.48C507.662,400.845 507.557,397.75 508.228,395.294C511.449,395.496 514.41,396.238 517.03,397.69C517.07,393.929 517.959,390.912 519.617,388.569C522.551,389.353 525.107,390.923 527.325,393.199C528.254,389.914 529.614,387.137 531.483,384.957C535.082,386.776 537.135,389.197 538.405,391.923C540.575,388.532 542.714,386.127 544.824,384.689C547.046,386.927 548.633,389.637 549.7,392.733C552.148,390.152 554.884,388.218 558.049,387.248C559.069,389.757 559.557,392.709 559.572,396.055C562.245,394.236 565.24,392.892 568.941,392.589C569.862,395.778 569.768,398.851 568.825,401.829C571.475,400.163 574.565,399.06 578.319,398.804C578.572,402.206 578.559,405.661 577.411,408.604C580.512,407.342 583.889,406.56 587.751,406.621C587.53,411.049 586.808,414.215 585.474,415.838C590.216,416.765 593.542,419.135 595.778,423.083C599.757,430.109 580.905,444.63 579.891,443.918C583.758,436.518 588.328,429.508 587.374,425.269C586.541,421.572 584.123,421.419 580.202,420.352C569.511,428.933 556.662,434.829 541.554,437.913C527.525,439.679 513.325,439.292 498.816,435.03Z" style="fill:rgb(233,205,3);"/>
            <path d="M490.076,431.6C489.951,431.426 489.821,431.238 489.69,431.036C488.144,428.667 485.896,424.39 485.776,423.806L485.756,423.568L485.786,423.346L485.865,423.131L486.007,422.916L486.244,422.701L486.504,422.556C486.834,422.404 487.576,422.201 488.526,422.003C490.293,421.634 492.827,421.245 494.536,421.059C493.249,418.832 492.337,416.313 491.769,413.527L492.41,412.387C494.633,411.585 496.986,411.188 499.452,411.141C498.596,408.79 498.323,406.457 498.592,404.142L499.427,403.27C502.268,402.813 504.812,402.862 507.168,403.229C506.635,400.034 506.649,397.277 507.263,395.03L508.29,394.296C511.098,394.472 513.716,395.045 516.097,396.108C516.348,392.833 517.276,390.146 518.801,387.992L519.875,387.603C522.469,388.296 524.786,389.566 526.848,391.369C527.791,388.605 529.071,386.234 530.724,384.306L531.934,384.065C535.087,385.658 537.124,387.688 538.502,389.975C540.443,387.18 542.368,385.152 544.261,383.862L545.534,383.984C547.501,385.967 548.997,388.3 550.088,390.934C552.373,388.78 554.901,387.167 557.756,386.292L558.976,386.871C559.854,389.033 560.36,391.51 560.519,394.274C562.945,392.857 565.651,391.855 568.86,391.592L569.902,392.312C570.647,394.892 570.767,397.401 570.34,399.848C572.64,398.737 575.242,398.012 578.251,397.807L579.316,398.73C579.525,401.54 579.545,404.383 578.952,406.971C581.639,406.085 584.54,405.57 587.767,405.621L588.75,406.67C588.564,410.403 587.995,413.283 587.062,415.179C591.383,416.34 594.489,418.779 596.648,422.591C597.915,424.827 597.291,427.754 595.502,430.76C593.085,434.822 588.609,439.097 585.142,441.843C583.082,443.475 581.352,444.567 580.582,444.832C580.437,444.882 580.31,444.912 580.204,444.927L579.859,444.936L579.553,444.863L579.316,444.736L579.004,443.455C581.309,439.045 583.868,434.777 585.339,431.157C586.234,428.954 586.744,427.025 586.398,425.489C585.993,423.692 585.134,422.921 583.819,422.411C582.879,422.047 581.748,421.793 580.432,421.448C569.702,429.953 556.843,435.812 541.754,438.893L541.679,438.905C527.584,440.679 513.317,440.296 498.742,436.051L498.741,436.051C497.664,436.204 494.414,436.77 494.022,440.693C493.98,441.114 494.136,441.586 494.395,442.11C494.722,442.77 495.222,443.482 495.843,444.23C498.954,447.979 505,452.492 509.244,455.464L508.67,457.283L508.43,457.253C498.388,454.764 492.047,451.742 488.373,448.723C485.743,446.562 484.427,444.365 484.032,442.335C483.299,438.566 485.581,435.227 487.89,433.184C488.662,432.501 489.432,431.964 490.076,431.6ZM503.631,453.854C500.152,451.215 496.513,448.17 494.304,445.508C492.732,443.613 491.898,441.838 492.032,440.495C492.612,434.694 497.693,434.195 498.659,434.043L499.097,434.071C513.455,438.288 527.508,438.669 541.394,436.925C556.317,433.873 569.013,428.051 579.577,419.572L580.465,419.387C582.073,419.825 583.433,420.117 584.542,420.547C586.473,421.296 587.755,422.41 588.349,425.049C588.767,426.903 588.272,429.252 587.192,431.91C586.028,434.775 584.195,438.043 582.335,441.467C582.817,441.117 583.344,440.717 583.901,440.275C587.202,437.66 591.482,433.606 593.784,429.737C595.142,427.455 595.869,425.274 594.908,423.576C592.82,419.89 589.71,417.685 585.282,416.82L584.702,415.203C585.84,413.819 586.437,411.216 586.689,407.626C583.405,407.71 580.488,408.431 577.788,409.53L576.479,408.24C577.462,405.722 577.554,402.808 577.389,399.893C574.263,400.248 571.638,401.242 569.358,402.675L567.872,401.527C568.676,398.988 568.821,396.375 568.191,393.674C565.057,394.081 562.468,395.294 560.135,396.881L558.572,396.059C558.559,393.24 558.203,390.711 557.452,388.508C554.822,389.501 552.516,391.217 550.426,393.422L548.755,393.059C547.835,390.391 546.514,388.022 544.704,386.016C542.905,387.427 541.093,389.577 539.247,392.462L537.498,392.345C536.399,389.985 534.666,387.875 531.739,386.227C530.215,388.204 529.087,390.642 528.288,393.471L526.609,393.897C524.697,391.934 522.519,390.525 520.044,389.736C518.744,391.842 518.065,394.483 518.03,397.701L516.545,398.565C514.282,397.31 511.749,396.619 509.008,396.358C508.59,398.549 508.76,401.21 509.4,404.275L508.21,405.457C505.877,404.953 503.358,404.767 500.513,405.133C500.39,407.316 500.831,409.516 501.861,411.735L500.916,413.155C498.464,413.062 496.124,413.317 493.919,413.992C494.577,416.772 495.622,419.25 497.11,421.384C497.118,421.396 497.126,421.406 497.133,421.417L495.519,422.597C495.585,422.684 496.079,422.947 496.079,422.947C496.079,422.947 496.044,422.945 496.023,422.945C494.843,422.926 490.091,423.634 488.063,424.149C488.309,424.639 488.67,425.31 489.073,426.047C490.178,428.071 492.241,431.136 492.241,431.136C492.241,431.136 491.991,431.022 491.918,431.01C491.884,431.005 491.851,431.001 491.819,430.999L491.819,432.987L492.397,432.803L492.067,432.96L491.854,432.985C491.854,432.985 491.529,433.094 491.301,433.21C490.721,433.506 489.972,434.013 489.215,434.682C487.367,436.318 485.408,438.935 485.996,441.953C486.322,443.628 487.473,445.395 489.643,447.178C492.475,449.506 496.974,451.802 503.631,453.854Z" style="fill:rgb(234,205,3);"/>
            <path d="M530.116,457.735C520.73,458.703 514.428,456.456 514.951,447.092C508.313,443.811 507.009,437.844 511.515,428.95L516.634,428.857C513.148,435.067 512.838,439.933 518.129,442.429C525.624,439.585 531.181,441.765 534.835,448.878C534.798,448.365 525.774,449.11 525.337,449.767C524.806,450.564 529.708,458.003 530.116,457.735Z" style="fill:rgb(235,206,3);stroke:rgb(234,205,3);stroke-width:2px;"/>
            <g transform="matrix(-0.950026,0.312172,0.312172,0.950026,919.371,-147.357)">
                <path d="M530.116,457.735C520.73,458.703 514.428,456.456 514.951,447.092C508.313,443.811 507.009,437.844 511.515,428.95L516.634,428.857C513.148,435.067 512.838,439.933 518.129,442.429C525.624,439.585 531.181,441.765 534.835,448.878C534.798,448.365 525.774,449.11 525.337,449.767C524.806,450.564 529.708,458.003 530.116,457.735Z" style="fill:rgb(233,205,3);stroke:rgb(234,205,3);stroke-width:2px;"/>
            </g>
            <path d="M530.318,420.901C527.594,420.993 525.857,433.08 531.521,432.422C536.429,431.852 533.926,420.778 530.318,420.901Z" style="fill:rgb(255,240,131);"/>
            <path d="M530.284,419.901C531.285,419.867 532.259,420.389 533.067,421.356C534.038,422.518 534.791,424.358 535.1,426.24C535.361,427.83 535.302,429.444 534.853,430.701C534.32,432.191 533.274,433.225 531.637,433.416C529.406,433.675 528.022,432.47 527.313,430.595C526.718,429.022 526.646,426.922 526.946,425.029C527.236,423.197 527.888,421.57 528.654,420.734C529.151,420.191 529.718,419.92 530.284,419.901ZM530.352,421.9C530.303,421.902 530.27,421.95 530.225,421.989C530.125,422.078 530.031,422.193 529.94,422.328C529.466,423.024 529.113,424.133 528.921,425.342C528.676,426.887 528.698,428.603 529.184,429.888C529.555,430.87 530.238,431.565 531.406,431.429C532.223,431.334 532.704,430.771 532.969,430.028C533.318,429.052 533.329,427.798 533.126,426.563C532.879,425.056 532.31,423.569 531.533,422.638C531.174,422.209 530.796,421.885 530.352,421.9Z" style="fill:rgb(255,240,131);"/>
            <g transform="matrix(0.996247,-0.0865558,0.0865558,0.996247,-17.0983,44.3725)">
                <path d="M530.318,420.901C527.594,420.993 525.857,433.08 531.521,432.422C536.429,431.852 533.926,420.778 530.318,420.901Z" style="fill:rgb(255,240,131);"/>
                <path d="M530.284,419.901C531.285,419.867 532.259,420.389 533.067,421.356C534.038,422.518 534.791,424.358 535.1,426.24C535.361,427.83 535.302,429.444 534.853,430.701C534.32,432.191 533.274,433.225 531.637,433.416C529.406,433.675 528.022,432.47 527.313,430.595C526.718,429.022 526.646,426.922 526.946,425.029C527.236,423.197 527.888,421.57 528.654,420.734C529.151,420.191 529.718,419.92 530.284,419.901ZM530.352,421.9C530.303,421.902 530.27,421.95 530.225,421.989C530.125,422.078 530.031,422.193 529.94,422.328C529.466,423.024 529.113,424.133 528.921,425.342C528.676,426.887 528.698,428.603 529.184,429.888C529.555,430.87 530.238,431.565 531.406,431.429C532.223,431.334 532.704,430.771 532.969,430.028C533.318,429.052 533.329,427.798 533.126,426.563C532.879,425.056 532.31,423.569 531.533,422.638C531.174,422.209 530.796,421.885 530.352,421.9Z" style="fill:rgb(255,240,131);"/>
            </g>
            <path d="M535.766,431.554C536.573,433.416 543.433,432.965 544.494,430.543C544.477,430.563 543.262,435.3 540.687,435.576C537.429,435.926 535.76,431.6 535.766,431.554Z" style="fill:rgb(255,240,131);"/>
            <path d="M544.493,430.544C544.456,430.645 543.24,435.302 540.687,435.576C537.429,435.926 535.76,431.6 535.766,431.554C536.572,433.416 543.43,432.965 544.493,430.544ZM544.493,430.544C544.493,430.543 544.494,430.543 544.494,430.543C544.494,430.543 544.493,430.544 544.493,430.544Z" style="fill:rgb(255,240,131);"/>
            <g transform="matrix(0.872389,0.210891,-0.189396,0.783472,150.33,-25.8183)">
                <path d="M548.147,420.888C547.738,423.751 550.412,426.523 549.854,423.733C549.803,423.478 549.328,421.774 548.147,420.888Z" style="fill:rgb(233,205,3);"/>
                <path d="M548.769,419.859C550.268,420.983 550.877,423.14 550.941,423.464C551.069,424.103 551.059,424.562 551.004,424.86L550.921,425.17L550.759,425.503L550.372,425.91L549.945,426.1L549.54,426.124L549.157,426.026L548.742,425.781C547.936,425.16 546.722,422.963 547.046,420.693C547.106,420.275 547.353,419.919 547.702,419.75C548.051,419.581 548.454,419.622 548.769,419.859Z" style="fill:rgb(233,205,3);"/>
            </g>
            <g transform="matrix(0.872389,0.210891,-0.189396,0.783472,132.665,-23.6285)">
                <path d="M548.147,420.888C547.738,423.751 550.412,426.523 549.854,423.733C549.803,423.478 549.328,421.774 548.147,420.888Z" style="fill:rgb(233,205,3);"/>
                <path d="M548.769,419.859C550.268,420.983 550.877,423.14 550.941,423.464C551.069,424.103 551.059,424.562 551.004,424.86L550.921,425.17L550.759,425.503L550.372,425.91L549.945,426.1L549.54,426.124L549.157,426.026L548.742,425.781C547.936,425.16 546.722,422.963 547.046,420.693C547.106,420.275 547.353,419.919 547.702,419.75C548.051,419.581 548.454,419.622 548.769,419.859Z" style="fill:rgb(233,205,3);"/>
            </g>
        </g>
    </g>
    <g transform="matrix(0.992915,-0.118825,0.118825,0.992915,-48.3509,65.4178)">
        <g opacity="0.71">
            <clipPath id="_clip1">
                <path d="M494.055,380.341L494.055,363.312L496.178,363.312L496.178,371.756C496.178,371.787 496.196,371.814 496.224,371.826C496.252,371.837 496.285,371.831 496.306,371.809L504.815,363.312C504.815,363.312 507.68,363.312 507.68,363.312L500.607,370.143C500.58,370.17 500.576,370.212 500.598,370.242L508.034,380.341L505.222,380.341C505.222,380.341 499.127,371.678 499.127,371.678C499.114,371.66 499.094,371.648 499.072,371.646C499.05,371.644 499.029,371.652 499.013,371.667L496.2,374.409C496.186,374.423 496.178,374.443 496.178,374.463L496.178,380.341L494.055,380.341ZM508.304,380.341L514.844,363.312C514.844,363.312 517.191,363.312 517.191,363.312L524.16,380.341L521.734,380.341C521.734,380.341 519.749,375.186 519.749,375.186C519.738,375.157 519.71,375.138 519.679,375.138L512.495,375.138C512.463,375.138 512.435,375.158 512.424,375.188L510.556,380.341L508.304,380.341ZM513.081,373.335C513.072,373.358 513.075,373.384 513.089,373.405C513.103,373.425 513.127,373.437 513.151,373.437L518.976,373.437C519,373.437 519.023,373.425 519.038,373.405C519.052,373.384 519.055,373.358 519.046,373.335L517.253,368.577C516.707,367.134 516.301,365.949 516.036,365.021C516.027,364.987 515.995,364.965 515.961,364.966C515.926,364.967 515.897,364.993 515.89,365.027C515.672,366.124 515.364,367.214 514.967,368.296L513.081,373.335ZM526.141,380.341L526.141,363.312L528.357,363.312C528.357,363.312 537.358,376.767 537.358,376.767C537.377,376.794 537.411,376.807 537.443,376.797C537.475,376.787 537.496,376.758 537.496,376.725L537.496,363.312C537.496,363.312 539.525,363.312 539.525,363.312L539.525,380.341L537.309,380.341C537.309,380.341 528.308,366.874 528.308,366.874C528.289,366.847 528.255,366.835 528.223,366.844C528.191,366.854 528.17,366.883 528.17,366.916L528.17,380.341C528.17,380.341 526.141,380.341 526.141,380.341ZM543.883,380.341L543.883,363.312L546.006,363.312L546.006,380.341L543.883,380.341ZM550.164,380.341L550.164,363.312L556.007,363.312C557.335,363.312 558.349,363.393 559.048,363.556C560.02,363.78 560.85,364.184 561.536,364.771C562.433,365.528 563.103,366.497 563.548,367.675C563.994,368.859 564.217,370.211 564.217,371.733C564.217,373.029 564.066,374.178 563.763,375.18C563.461,376.178 563.074,377.005 562.602,377.659C562.131,378.312 561.616,378.825 561.057,379.199C560.497,379.574 559.821,379.857 559.03,380.05C558.234,380.244 557.32,380.341 556.288,380.341L550.164,380.341ZM552.287,378.389C552.287,378.431 552.321,378.464 552.362,378.464L556.03,378.464C557.173,378.464 558.069,378.357 558.72,378.144C559.377,377.929 559.9,377.626 560.291,377.235C560.837,376.689 561.264,375.955 561.569,375.032C561.872,374.115 562.024,373.004 562.024,371.698C562.024,369.883 561.723,368.49 561.128,367.516C560.528,366.535 559.798,365.879 558.94,365.545C558.325,365.309 557.336,365.189 555.972,365.189L552.362,365.189C552.321,365.189 552.287,365.222 552.287,365.264L552.287,378.389ZM567.426,380.341L567.426,363.312L570.718,363.312L574.767,375.424C575.142,376.557 575.415,377.404 575.587,377.966C575.597,377.997 575.626,378.019 575.659,378.019C575.692,378.019 575.721,377.998 575.731,377.966C575.926,377.342 576.231,376.424 576.644,375.214L580.74,363.312C580.74,363.312 583.67,363.312 583.67,363.312C583.67,363.312 583.67,380.341 583.67,380.341L581.629,380.341C581.629,380.341 581.629,366.037 581.629,366.037C581.629,366.001 581.602,365.969 581.566,365.963C581.53,365.957 581.495,365.978 581.483,366.013L576.508,380.341C576.508,380.341 574.565,380.341 574.565,380.341C574.565,380.341 569.613,365.767 569.613,365.767C569.601,365.732 569.566,365.711 569.53,365.717C569.493,365.723 569.467,365.754 569.467,365.791L569.467,380.341L567.426,380.341Z" clip-rule="nonzero"/>
            </clipPath>
            <g clip-path="url(#_clip1)">
                <g transform="matrix(0.992915,0.118825,-0.118825,0.992915,55.7817,-59.2091)">
                    <path d="M487.398,384.358L485.374,367.45L487.482,367.198L488.485,375.582C488.489,375.612 488.51,375.637 488.54,375.646C488.569,375.654 488.6,375.644 488.619,375.62L496.058,366.171C496.058,366.171 498.902,365.831 498.902,365.831L492.691,373.454C492.668,373.484 492.669,373.526 492.695,373.554L501.277,382.697L498.485,383.031C498.485,383.031 491.404,375.154 491.404,375.154C491.39,375.137 491.368,375.128 491.346,375.129C491.324,375.129 491.304,375.139 491.29,375.157L488.823,378.214C488.81,378.229 488.804,378.25 488.807,378.27L489.505,384.106L487.398,384.358Z" style="fill:rgb(233,205,3);"/>
                </g>
                <g transform="matrix(0.992915,0.118825,-0.118825,0.992915,55.7817,-59.2091)">
                    <path d="M501.546,382.665L506.016,364.98C506.016,364.98 508.346,364.701 508.346,364.701L517.29,380.781L514.881,381.069C514.881,381.069 512.297,376.187 512.297,376.187C512.283,376.159 512.253,376.144 512.222,376.147L505.089,377.001C505.057,377.005 505.032,377.028 505.024,377.059L503.781,382.398L501.546,382.665ZM505.456,375.141C505.45,375.165 505.457,375.191 505.473,375.209C505.489,375.228 505.514,375.237 505.538,375.234L511.321,374.542C511.346,374.539 511.367,374.524 511.379,374.502C511.391,374.481 511.391,374.454 511.379,374.432L509.034,369.921C508.32,368.553 507.776,367.425 507.403,366.535C507.389,366.502 507.356,366.484 507.321,366.489C507.287,366.495 507.261,366.523 507.258,366.558C507.172,367.674 506.996,368.792 506.731,369.914L505.456,375.141Z" style="fill:rgb(233,205,3);"/>
                </g>
                <g transform="matrix(0.992915,0.118825,-0.118825,0.992915,55.7817,-59.2091)">
                    <path d="M519.256,380.546L517.233,363.637L519.433,363.374C519.433,363.374 529.969,375.664 529.969,375.664C529.991,375.689 530.027,375.697 530.057,375.684C530.087,375.671 530.105,375.639 530.101,375.606L528.508,362.288C528.508,362.288 530.522,362.047 530.522,362.047L532.546,378.955L530.345,379.219C530.345,379.219 519.808,366.917 519.808,366.917C519.786,366.892 519.75,366.884 519.72,366.897C519.69,366.91 519.672,366.942 519.676,366.975L521.271,380.305C521.271,380.305 519.256,380.546 519.256,380.546Z" style="fill:rgb(233,205,3);"/>
                </g>
                <g transform="matrix(0.992915,0.118825,-0.118825,0.992915,55.7817,-59.2091)">
                    <path d="M536.873,378.437L534.849,361.529L536.957,361.277L538.98,378.185L536.873,378.437Z" style="fill:rgb(233,205,3);"/>
                </g>
                <g transform="matrix(0.992915,0.118825,-0.118825,0.992915,55.7817,-59.2091)">
                    <path d="M543.109,377.691L541.086,360.783L546.887,360.088C548.206,359.931 549.223,359.891 549.936,359.969C550.928,360.076 551.799,360.379 552.551,360.88C553.531,361.525 554.312,362.407 554.893,363.525C555.477,364.647 555.859,365.964 556.039,367.474C556.193,368.761 556.18,369.92 555.998,370.95C555.817,371.978 555.532,372.845 555.14,373.551C554.75,374.254 554.3,374.825 553.789,375.263C553.278,375.702 552.641,376.063 551.878,376.349C551.111,376.636 550.215,376.841 549.19,376.963L543.109,377.691ZM544.985,375.501C544.99,375.542 545.028,375.571 545.069,375.567L548.711,375.131C549.846,374.995 550.723,374.782 551.343,374.493C551.97,374.202 552.454,373.838 552.795,373.404C553.273,372.796 553.609,372.017 553.802,371.064C553.994,370.118 554.013,368.997 553.858,367.7C553.642,365.898 553.178,364.55 552.471,363.654C551.759,362.751 550.956,362.187 550.065,361.957C549.426,361.796 548.43,361.794 547.075,361.956L543.491,362.385C543.45,362.39 543.421,362.427 543.426,362.469L544.985,375.501Z" style="fill:rgb(233,205,3);"/>
                </g>
                <g transform="matrix(0.992915,0.118825,-0.118825,0.992915,55.7817,-59.2091)">
                    <path d="M560.249,375.64L558.225,358.732L561.494,358.34L566.954,369.886C567.461,370.965 567.833,371.774 568.07,372.312C568.083,372.342 568.115,372.36 568.148,372.356C568.18,372.352 568.207,372.328 568.213,372.295C568.333,371.652 568.526,370.705 568.793,369.454L571.445,357.15C571.445,357.15 574.354,356.801 574.354,356.801C574.354,356.801 576.378,373.71 576.378,373.71L574.351,373.952C574.351,373.952 572.652,359.75 572.652,359.75C572.647,359.714 572.617,359.686 572.58,359.684C572.544,359.682 572.511,359.707 572.503,359.743L569.266,374.561C569.266,374.561 567.337,374.792 567.337,374.792C567.337,374.792 560.689,360.909 560.689,360.909C560.673,360.876 560.635,360.859 560.6,360.87C560.565,360.88 560.542,360.914 560.546,360.951L562.275,375.397L560.249,375.64Z" style="fill:rgb(233,205,3);"/>
                </g>
            </g>
        </g>
    </g>
</svg>
